M48
; DRILL file {KiCad (6.0.5)} date Sun 12 Jun 2022 11:48:36 PM
; FORMAT={-:-/ absolute / inch / decimal}
; #@! TF.CreationDate,2022-06-12T23:48:36-07:00
; #@! TF.GenerationSoftware,Kicad,Pcbnew,(6.0.5)
; #@! TF.FileFunction,Plated,1,2,PTH
FMAT,2
INCH
; #@! TA.AperFunction,Plated,PTH,ViaDrill
T1C0.0157
; #@! TA.AperFunction,Plated,PTH,ComponentDrill
T2C0.0354
; #@! TA.AperFunction,Plated,PTH,ComponentDrill
T3C0.0394
; #@! TA.AperFunction,Plated,PTH,ComponentDrill
T4C0.1260
%
G90
G05
T1
X4.4094Y-2.874
X5.315Y-3.937
T2
X4.2362Y-2.5394
X4.2862Y-2.5394
X4.3362Y-2.5394
X4.3862Y-2.5394
X4.6102Y-2.5394
X4.6602Y-2.5394
X4.7102Y-2.5394
X4.7602Y-2.5394
X4.9787Y-2.5394
X5.0287Y-2.5394
X5.0787Y-2.5394
X5.1287Y-2.5394
T3
X4.2291Y-3.139
X4.2291Y-3.239
X4.2291Y-3.339
X4.2291Y-3.439
X4.2291Y-3.539
X4.2291Y-3.639
X4.2291Y-3.739
X4.2291Y-3.839
X4.2291Y-3.939
X4.2291Y-4.039
X4.2291Y-4.139
X4.2291Y-4.239
X4.2291Y-4.339
X4.2291Y-4.439
X4.2291Y-4.539
X4.2291Y-4.639
X5.1291Y-3.139
X5.1291Y-3.239
X5.1291Y-3.339
X5.1291Y-3.439
X5.1291Y-3.539
X5.1291Y-3.639
X5.1291Y-3.739
X5.1291Y-3.839
X5.1291Y-3.939
X5.1291Y-4.039
X5.1291Y-4.139
X5.1291Y-4.239
X5.1291Y-4.339
X5.1291Y-4.439
X5.1291Y-4.539
X5.1291Y-4.639
T4
X3.9764Y-2.4803
X3.9764Y-4.5669
X5.3937Y-2.4803
X5.3937Y-4.5669
T0
M30
