%TF.GenerationSoftware,KiCad,Pcbnew,(6.0.5)*%
%TF.CreationDate,2022-06-18T19:52:53-07:00*%
%TF.ProjectId,garbage-day-indicator,67617262-6167-4652-9d64-61792d696e64,0*%
%TF.SameCoordinates,Original*%
%TF.FileFunction,Soldermask,Top*%
%TF.FilePolarity,Negative*%
%FSLAX46Y46*%
G04 Gerber Fmt 4.6, Leading zero omitted, Abs format (unit mm)*
G04 Created by KiCad (PCBNEW (6.0.5)) date 2022-06-18 19:52:53*
%MOMM*%
%LPD*%
G01*
G04 APERTURE LIST*
G04 Aperture macros list*
%AMRoundRect*
0 Rectangle with rounded corners*
0 $1 Rounding radius*
0 $2 $3 $4 $5 $6 $7 $8 $9 X,Y pos of 4 corners*
0 Add a 4 corners polygon primitive as box body*
4,1,4,$2,$3,$4,$5,$6,$7,$8,$9,$2,$3,0*
0 Add four circle primitives for the rounded corners*
1,1,$1+$1,$2,$3*
1,1,$1+$1,$4,$5*
1,1,$1+$1,$6,$7*
1,1,$1+$1,$8,$9*
0 Add four rect primitives between the rounded corners*
20,1,$1+$1,$2,$3,$4,$5,0*
20,1,$1+$1,$4,$5,$6,$7,0*
20,1,$1+$1,$6,$7,$8,$9,0*
20,1,$1+$1,$8,$9,$2,$3,0*%
G04 Aperture macros list end*
%ADD10RoundRect,0.200000X0.275000X-0.200000X0.275000X0.200000X-0.275000X0.200000X-0.275000X-0.200000X0*%
%ADD11O,1.700000X1.700000*%
%ADD12R,1.700000X1.700000*%
%ADD13C,5.600000*%
%ADD14O,1.070000X1.800000*%
%ADD15R,1.070000X1.800000*%
G04 APERTURE END LIST*
D10*
%TO.C,R9*%
X151000000Y-78175000D03*
X151000000Y-79825000D03*
%TD*%
%TO.C,R8*%
X147500000Y-78175000D03*
X147500000Y-79825000D03*
%TD*%
%TO.C,R7*%
X144000000Y-78175000D03*
X144000000Y-79825000D03*
%TD*%
%TO.C,R6*%
X140500000Y-78175000D03*
X140500000Y-79825000D03*
%TD*%
%TO.C,R5*%
X137000000Y-78175000D03*
X137000000Y-79825000D03*
%TD*%
%TO.C,R4*%
X133500000Y-78262500D03*
X133500000Y-79912500D03*
%TD*%
%TO.C,R3*%
X130000000Y-78175000D03*
X130000000Y-79825000D03*
%TD*%
%TO.C,R2*%
X126500000Y-79825000D03*
X126500000Y-78175000D03*
%TD*%
%TO.C,R1*%
X123000000Y-78175000D03*
X123000000Y-79825000D03*
%TD*%
D11*
%TO.C,J1*%
X125420000Y-127460000D03*
X125420000Y-124920000D03*
X125420000Y-122380000D03*
X125420000Y-119840000D03*
X125420000Y-117300000D03*
X125420000Y-114760000D03*
X125420000Y-112220000D03*
X125420000Y-109680000D03*
X125420000Y-107140000D03*
X125420000Y-104600000D03*
X125420000Y-102060000D03*
X125420000Y-99520000D03*
X125420000Y-96980000D03*
X125420000Y-94440000D03*
X125420000Y-91900000D03*
D12*
X125420000Y-89360000D03*
%TD*%
D13*
%TO.C,H2*%
X155000000Y-72000000D03*
%TD*%
D14*
%TO.C,D2*%
X138910000Y-73500000D03*
X137640000Y-73500000D03*
X136370000Y-73500000D03*
D15*
X135100000Y-73500000D03*
%TD*%
D13*
%TO.C,H4*%
X155000000Y-125000000D03*
%TD*%
D11*
%TO.C,J2*%
X148280000Y-127460000D03*
X148280000Y-124920000D03*
X148280000Y-122380000D03*
X148280000Y-119840000D03*
X148280000Y-117300000D03*
X148280000Y-114760000D03*
X148280000Y-112220000D03*
X148280000Y-109680000D03*
X148280000Y-107140000D03*
X148280000Y-104600000D03*
X148280000Y-102060000D03*
X148280000Y-99520000D03*
X148280000Y-96980000D03*
X148280000Y-94440000D03*
X148280000Y-91900000D03*
D12*
X148280000Y-89360000D03*
%TD*%
D14*
%TO.C,D3*%
X148270000Y-73500000D03*
X147000000Y-73500000D03*
X145730000Y-73500000D03*
D15*
X144460000Y-73500000D03*
%TD*%
D14*
%TO.C,D1*%
X129410000Y-73500000D03*
X128140000Y-73500000D03*
X126870000Y-73500000D03*
D15*
X125600000Y-73500000D03*
%TD*%
D13*
%TO.C,H1*%
X119000000Y-72000000D03*
%TD*%
%TO.C,H3*%
X119000000Y-125000000D03*
%TD*%
M02*
