%TF.GenerationSoftware,KiCad,Pcbnew,(6.0.5)*%
%TF.CreationDate,2022-06-12T23:48:21-07:00*%
%TF.ProjectId,garbage-day-indicator,67617262-6167-4652-9d64-61792d696e64,0*%
%TF.SameCoordinates,Original*%
%TF.FileFunction,Soldermask,Top*%
%TF.FilePolarity,Negative*%
%FSLAX46Y46*%
G04 Gerber Fmt 4.6, Leading zero omitted, Abs format (unit mm)*
G04 Created by KiCad (PCBNEW (6.0.5)) date 2022-06-12 23:48:21*
%MOMM*%
%LPD*%
G01*
G04 APERTURE LIST*
G04 Aperture macros list*
%AMRoundRect*
0 Rectangle with rounded corners*
0 $1 Rounding radius*
0 $2 $3 $4 $5 $6 $7 $8 $9 X,Y pos of 4 corners*
0 Add a 4 corners polygon primitive as box body*
4,1,4,$2,$3,$4,$5,$6,$7,$8,$9,$2,$3,0*
0 Add four circle primitives for the rounded corners*
1,1,$1+$1,$2,$3*
1,1,$1+$1,$4,$5*
1,1,$1+$1,$6,$7*
1,1,$1+$1,$8,$9*
0 Add four rect primitives between the rounded corners*
20,1,$1+$1,$2,$3,$4,$5,0*
20,1,$1+$1,$4,$5,$6,$7,0*
20,1,$1+$1,$6,$7,$8,$9,0*
20,1,$1+$1,$8,$9,$2,$3,0*%
G04 Aperture macros list end*
%ADD10C,5.600000*%
%ADD11RoundRect,0.250000X0.450000X-0.262500X0.450000X0.262500X-0.450000X0.262500X-0.450000X-0.262500X0*%
%ADD12O,1.700000X1.700000*%
%ADD13R,1.700000X1.700000*%
%ADD14R,1.070000X1.800000*%
%ADD15O,1.070000X1.800000*%
G04 APERTURE END LIST*
D10*
%TO.C,He1*%
X137000000Y-63000000D03*
%TD*%
%TO.C,H4*%
X137000000Y-116000000D03*
%TD*%
%TO.C,H3*%
X101000000Y-116000000D03*
%TD*%
%TO.C,H1*%
X101000000Y-63000000D03*
%TD*%
D11*
%TO.C,R1*%
X105000000Y-69087500D03*
X105000000Y-70912500D03*
%TD*%
D12*
%TO.C,J1*%
X107420000Y-117830000D03*
X107420000Y-115290000D03*
X107420000Y-112750000D03*
X107420000Y-110210000D03*
X107420000Y-107670000D03*
X107420000Y-105130000D03*
X107420000Y-102590000D03*
X107420000Y-100050000D03*
X107420000Y-97510000D03*
X107420000Y-94970000D03*
X107420000Y-92430000D03*
X107420000Y-89890000D03*
X107420000Y-87350000D03*
X107420000Y-84810000D03*
X107420000Y-82270000D03*
D13*
X107420000Y-79730000D03*
%TD*%
D11*
%TO.C,R7*%
X126000000Y-70912500D03*
X126000000Y-69087500D03*
%TD*%
D14*
%TO.C,D2*%
X117100000Y-64500000D03*
D15*
X118370000Y-64500000D03*
X119640000Y-64500000D03*
X120910000Y-64500000D03*
%TD*%
D11*
%TO.C,R2*%
X108500000Y-69087500D03*
X108500000Y-70912500D03*
%TD*%
D12*
%TO.C,J2*%
X130280000Y-117830000D03*
X130280000Y-115290000D03*
X130280000Y-112750000D03*
X130280000Y-110210000D03*
X130280000Y-107670000D03*
X130280000Y-105130000D03*
X130280000Y-102590000D03*
X130280000Y-100050000D03*
X130280000Y-97510000D03*
X130280000Y-94970000D03*
X130280000Y-92430000D03*
X130280000Y-89890000D03*
X130280000Y-87350000D03*
X130280000Y-84810000D03*
X130280000Y-82270000D03*
D13*
X130280000Y-79730000D03*
%TD*%
D14*
%TO.C,D3*%
X126460000Y-64500000D03*
D15*
X127730000Y-64500000D03*
X129000000Y-64500000D03*
X130270000Y-64500000D03*
%TD*%
D11*
%TO.C,R8*%
X129500000Y-70912500D03*
X129500000Y-69087500D03*
%TD*%
D14*
%TO.C,D1*%
X107600000Y-64500000D03*
D15*
X108870000Y-64500000D03*
X110140000Y-64500000D03*
X111410000Y-64500000D03*
%TD*%
D11*
%TO.C,R3*%
X112000000Y-69087500D03*
X112000000Y-70912500D03*
%TD*%
%TO.C,R9*%
X133000000Y-70912500D03*
X133000000Y-69087500D03*
%TD*%
%TO.C,R5*%
X119000000Y-70912500D03*
X119000000Y-69087500D03*
%TD*%
%TO.C,R6*%
X122500000Y-69087500D03*
X122500000Y-70912500D03*
%TD*%
%TO.C,R4*%
X115500000Y-71000000D03*
X115500000Y-69175000D03*
%TD*%
M02*
