%TF.GenerationSoftware,KiCad,Pcbnew,(6.0.5)*%
%TF.CreationDate,2022-06-12T23:48:21-07:00*%
%TF.ProjectId,garbage-day-indicator,67617262-6167-4652-9d64-61792d696e64,0*%
%TF.SameCoordinates,Original*%
%TF.FileFunction,Copper,L1,Top*%
%TF.FilePolarity,Positive*%
%FSLAX46Y46*%
G04 Gerber Fmt 4.6, Leading zero omitted, Abs format (unit mm)*
G04 Created by KiCad (PCBNEW (6.0.5)) date 2022-06-12 23:48:21*
%MOMM*%
%LPD*%
G01*
G04 APERTURE LIST*
G04 Aperture macros list*
%AMRoundRect*
0 Rectangle with rounded corners*
0 $1 Rounding radius*
0 $2 $3 $4 $5 $6 $7 $8 $9 X,Y pos of 4 corners*
0 Add a 4 corners polygon primitive as box body*
4,1,4,$2,$3,$4,$5,$6,$7,$8,$9,$2,$3,0*
0 Add four circle primitives for the rounded corners*
1,1,$1+$1,$2,$3*
1,1,$1+$1,$4,$5*
1,1,$1+$1,$6,$7*
1,1,$1+$1,$8,$9*
0 Add four rect primitives between the rounded corners*
20,1,$1+$1,$2,$3,$4,$5,0*
20,1,$1+$1,$4,$5,$6,$7,0*
20,1,$1+$1,$6,$7,$8,$9,0*
20,1,$1+$1,$8,$9,$2,$3,0*%
G04 Aperture macros list end*
%TA.AperFunction,ComponentPad*%
%ADD10C,5.600000*%
%TD*%
%TA.AperFunction,SMDPad,CuDef*%
%ADD11RoundRect,0.250000X0.450000X-0.262500X0.450000X0.262500X-0.450000X0.262500X-0.450000X-0.262500X0*%
%TD*%
%TA.AperFunction,ComponentPad*%
%ADD12O,1.700000X1.700000*%
%TD*%
%TA.AperFunction,ComponentPad*%
%ADD13R,1.700000X1.700000*%
%TD*%
%TA.AperFunction,ComponentPad*%
%ADD14R,1.070000X1.800000*%
%TD*%
%TA.AperFunction,ComponentPad*%
%ADD15O,1.070000X1.800000*%
%TD*%
%TA.AperFunction,ViaPad*%
%ADD16C,0.800000*%
%TD*%
%TA.AperFunction,Conductor*%
%ADD17C,0.250000*%
%TD*%
G04 APERTURE END LIST*
D10*
%TO.P,He1,1,1*%
%TO.N,GND*%
X137000000Y-63000000D03*
%TD*%
%TO.P,H4,1,1*%
%TO.N,GND*%
X137000000Y-116000000D03*
%TD*%
%TO.P,H3,1,1*%
%TO.N,GND*%
X101000000Y-116000000D03*
%TD*%
%TO.P,H1,1,1*%
%TO.N,GND*%
X101000000Y-63000000D03*
%TD*%
D11*
%TO.P,R1,2*%
%TO.N,Net-(D1-Pad1)*%
X105000000Y-69087500D03*
%TO.P,R1,1*%
%TO.N,/R1*%
X105000000Y-70912500D03*
%TD*%
D12*
%TO.P,J1,16,Pin_16*%
%TO.N,unconnected-(J1-Pad16)*%
X107420000Y-117830000D03*
%TO.P,J1,15,Pin_15*%
%TO.N,unconnected-(J1-Pad15)*%
X107420000Y-115290000D03*
%TO.P,J1,14,Pin_14*%
%TO.N,unconnected-(J1-Pad14)*%
X107420000Y-112750000D03*
%TO.P,J1,13,Pin_13*%
%TO.N,unconnected-(J1-Pad13)*%
X107420000Y-110210000D03*
%TO.P,J1,12,Pin_12*%
%TO.N,unconnected-(J1-Pad12)*%
X107420000Y-107670000D03*
%TO.P,J1,11,Pin_11*%
%TO.N,unconnected-(J1-Pad11)*%
X107420000Y-105130000D03*
%TO.P,J1,10,Pin_10*%
%TO.N,unconnected-(J1-Pad10)*%
X107420000Y-102590000D03*
%TO.P,J1,9,Pin_9*%
%TO.N,/B3*%
X107420000Y-100050000D03*
%TO.P,J1,8,Pin_8*%
%TO.N,unconnected-(J1-Pad8)*%
X107420000Y-97510000D03*
%TO.P,J1,7,Pin_7*%
%TO.N,unconnected-(J1-Pad7)*%
X107420000Y-94970000D03*
%TO.P,J1,6,Pin_6*%
%TO.N,unconnected-(J1-Pad6)*%
X107420000Y-92430000D03*
%TO.P,J1,5,Pin_5*%
%TO.N,unconnected-(J1-Pad5)*%
X107420000Y-89890000D03*
%TO.P,J1,4,Pin_4*%
%TO.N,/R1*%
X107420000Y-87350000D03*
%TO.P,J1,3,Pin_3*%
%TO.N,unconnected-(J1-Pad3)*%
X107420000Y-84810000D03*
%TO.P,J1,2,Pin_2*%
%TO.N,unconnected-(J1-Pad2)*%
X107420000Y-82270000D03*
D13*
%TO.P,J1,1,Pin_1*%
%TO.N,unconnected-(J1-Pad1)*%
X107420000Y-79730000D03*
%TD*%
D11*
%TO.P,R7,1*%
%TO.N,/R3*%
X126000000Y-70912500D03*
%TO.P,R7,2*%
%TO.N,Net-(D3-Pad1)*%
X126000000Y-69087500D03*
%TD*%
D14*
%TO.P,D2,1,BA*%
%TO.N,Net-(D2-Pad1)*%
X117100000Y-64500000D03*
D15*
%TO.P,D2,2,GA*%
%TO.N,Net-(D2-Pad2)*%
X118370000Y-64500000D03*
%TO.P,D2,3,K*%
%TO.N,GND*%
X119640000Y-64500000D03*
%TO.P,D2,4,RA*%
%TO.N,Net-(D2-Pad4)*%
X120910000Y-64500000D03*
%TD*%
D11*
%TO.P,R2,2*%
%TO.N,Net-(D1-Pad2)*%
X108500000Y-69087500D03*
%TO.P,R2,1*%
%TO.N,/G1*%
X108500000Y-70912500D03*
%TD*%
D12*
%TO.P,J2,16,Pin_16*%
%TO.N,GND*%
X130280000Y-117830000D03*
%TO.P,J2,15,Pin_15*%
%TO.N,/G3*%
X130280000Y-115290000D03*
%TO.P,J2,14,Pin_14*%
%TO.N,/R3*%
X130280000Y-112750000D03*
%TO.P,J2,13,Pin_13*%
%TO.N,unconnected-(J2-Pad13)*%
X130280000Y-110210000D03*
%TO.P,J2,12,Pin_12*%
%TO.N,unconnected-(J2-Pad12)*%
X130280000Y-107670000D03*
%TO.P,J2,11,Pin_11*%
%TO.N,/B2*%
X130280000Y-105130000D03*
%TO.P,J2,10,Pin_10*%
%TO.N,/G2*%
X130280000Y-102590000D03*
%TO.P,J2,9,Pin_9*%
%TO.N,/R2*%
X130280000Y-100050000D03*
%TO.P,J2,8,Pin_8*%
%TO.N,unconnected-(J2-Pad8)*%
X130280000Y-97510000D03*
%TO.P,J2,7,Pin_7*%
%TO.N,/B1*%
X130280000Y-94970000D03*
%TO.P,J2,6,Pin_6*%
%TO.N,/G1*%
X130280000Y-92430000D03*
%TO.P,J2,5,Pin_5*%
%TO.N,unconnected-(J2-Pad5)*%
X130280000Y-89890000D03*
%TO.P,J2,4,Pin_4*%
%TO.N,unconnected-(J2-Pad4)*%
X130280000Y-87350000D03*
%TO.P,J2,3,Pin_3*%
%TO.N,unconnected-(J2-Pad3)*%
X130280000Y-84810000D03*
%TO.P,J2,2,Pin_2*%
%TO.N,unconnected-(J2-Pad2)*%
X130280000Y-82270000D03*
D13*
%TO.P,J2,1,Pin_1*%
%TO.N,GND*%
X130280000Y-79730000D03*
%TD*%
D14*
%TO.P,D3,1,BA*%
%TO.N,Net-(D3-Pad1)*%
X126460000Y-64500000D03*
D15*
%TO.P,D3,2,GA*%
%TO.N,Net-(D3-Pad2)*%
X127730000Y-64500000D03*
%TO.P,D3,3,K*%
%TO.N,GND*%
X129000000Y-64500000D03*
%TO.P,D3,4,RA*%
%TO.N,Net-(D3-Pad4)*%
X130270000Y-64500000D03*
%TD*%
D11*
%TO.P,R8,1*%
%TO.N,/G3*%
X129500000Y-70912500D03*
%TO.P,R8,2*%
%TO.N,Net-(D3-Pad2)*%
X129500000Y-69087500D03*
%TD*%
D14*
%TO.P,D1,1,BA*%
%TO.N,Net-(D1-Pad1)*%
X107600000Y-64500000D03*
D15*
%TO.P,D1,2,GA*%
%TO.N,Net-(D1-Pad2)*%
X108870000Y-64500000D03*
%TO.P,D1,3,K*%
%TO.N,GND*%
X110140000Y-64500000D03*
%TO.P,D1,4,RA*%
%TO.N,Net-(D1-Pad4)*%
X111410000Y-64500000D03*
%TD*%
D11*
%TO.P,R3,2*%
%TO.N,Net-(D1-Pad4)*%
X112000000Y-69087500D03*
%TO.P,R3,1*%
%TO.N,/B1*%
X112000000Y-70912500D03*
%TD*%
%TO.P,R9,1*%
%TO.N,/B3*%
X133000000Y-70912500D03*
%TO.P,R9,2*%
%TO.N,Net-(D3-Pad4)*%
X133000000Y-69087500D03*
%TD*%
%TO.P,R5,1*%
%TO.N,/G2*%
X119000000Y-70912500D03*
%TO.P,R5,2*%
%TO.N,Net-(D2-Pad2)*%
X119000000Y-69087500D03*
%TD*%
%TO.P,R6,2*%
%TO.N,Net-(D2-Pad4)*%
X122500000Y-69087500D03*
%TO.P,R6,1*%
%TO.N,/B2*%
X122500000Y-70912500D03*
%TD*%
%TO.P,R4,1*%
%TO.N,/R2*%
X115500000Y-71000000D03*
%TO.P,R4,2*%
%TO.N,Net-(D2-Pad1)*%
X115500000Y-69175000D03*
%TD*%
D16*
%TO.N,/B3*%
X135000000Y-100000000D03*
%TO.N,/B1*%
X112000000Y-73000000D03*
%TD*%
D17*
%TO.N,/B3*%
X135000000Y-72912500D02*
X135000000Y-100000000D01*
X133000000Y-70912500D02*
X135000000Y-72912500D01*
%TO.N,Net-(D3-Pad2)*%
X127730000Y-64500000D02*
X127730000Y-67317500D01*
X127730000Y-67317500D02*
X129500000Y-69087500D01*
%TO.N,Net-(D3-Pad1)*%
X126460000Y-64500000D02*
X126460000Y-68627500D01*
X126460000Y-68627500D02*
X126000000Y-69087500D01*
%TO.N,Net-(D3-Pad4)*%
X131500000Y-64500000D02*
X133000000Y-66000000D01*
X130270000Y-64500000D02*
X131500000Y-64500000D01*
X133000000Y-66000000D02*
X133000000Y-69087500D01*
%TO.N,/G3*%
X129500000Y-70912500D02*
X133798080Y-75210580D01*
X133798080Y-111771920D02*
X130280000Y-115290000D01*
X133798080Y-75210580D02*
X133798080Y-111771920D01*
%TO.N,/R3*%
X126000000Y-70912500D02*
X133348560Y-78261060D01*
X133348560Y-78261060D02*
X133348560Y-109681440D01*
X133348560Y-109681440D02*
X130280000Y-112750000D01*
%TO.N,/B2*%
X122500000Y-70912500D02*
X122500000Y-78881988D01*
X132899040Y-88308030D02*
X132899040Y-102510960D01*
X122500000Y-78881988D02*
X129793501Y-86175489D01*
X129793501Y-86175489D02*
X130766499Y-86175489D01*
X130766499Y-86175489D02*
X132899040Y-88308030D01*
X132899040Y-102510960D02*
X130280000Y-105130000D01*
%TO.N,/G2*%
X119000000Y-70912500D02*
X119000000Y-77921988D01*
X119000000Y-77921988D02*
X129793501Y-88715489D01*
X129793501Y-88715489D02*
X130766499Y-88715489D01*
X130766499Y-88715489D02*
X132449520Y-90398510D01*
X132449520Y-90398510D02*
X132449520Y-100420480D01*
X132449520Y-100420480D02*
X130280000Y-102590000D01*
%TO.N,/R2*%
X115500000Y-71000000D02*
X115500000Y-76961988D01*
X115500000Y-76961988D02*
X129793501Y-91255489D01*
X129793501Y-91255489D02*
X130766499Y-91255489D01*
X130766499Y-91255489D02*
X132000000Y-92488990D01*
X132000000Y-92488990D02*
X132000000Y-98330000D01*
X132000000Y-98330000D02*
X130280000Y-100050000D01*
%TO.N,/B1*%
X112000000Y-70912500D02*
X112000000Y-73000000D01*
%TO.N,/G1*%
X130280000Y-92430000D02*
X108762500Y-70912500D01*
X108762500Y-70912500D02*
X108500000Y-70912500D01*
%TO.N,Net-(D3-Pad1)*%
X126000000Y-69087500D02*
X126600000Y-68487500D01*
%TO.N,Net-(D2-Pad4)*%
X122500000Y-69087500D02*
X120910000Y-67497500D01*
X120910000Y-67497500D02*
X120910000Y-64500000D01*
%TO.N,Net-(D2-Pad2)*%
X119000000Y-69087500D02*
X118370000Y-68457500D01*
X118370000Y-68457500D02*
X118370000Y-64500000D01*
%TO.N,Net-(D2-Pad1)*%
X115500000Y-69175000D02*
X117100000Y-67575000D01*
X117100000Y-67575000D02*
X117100000Y-64500000D01*
%TO.N,Net-(D1-Pad4)*%
X112000000Y-69087500D02*
X111410000Y-68497500D01*
X111410000Y-68497500D02*
X111410000Y-64500000D01*
%TO.N,Net-(D1-Pad2)*%
X108500000Y-69087500D02*
X108870000Y-68717500D01*
X108870000Y-68717500D02*
X108870000Y-64500000D01*
%TO.N,Net-(D1-Pad1)*%
X105000000Y-69087500D02*
X107600000Y-66487500D01*
X107600000Y-66487500D02*
X107600000Y-64500000D01*
%TO.N,/R1*%
X107420000Y-87350000D02*
X105000000Y-84930000D01*
X105000000Y-84930000D02*
X105000000Y-70912500D01*
%TD*%
%TA.AperFunction,Conductor*%
%TO.N,GND*%
G36*
X141433621Y-58528502D02*
G01*
X141480114Y-58582158D01*
X141491500Y-58634500D01*
X141491500Y-120365500D01*
X141471498Y-120433621D01*
X141417842Y-120480114D01*
X141365500Y-120491500D01*
X96634500Y-120491500D01*
X96566379Y-120471498D01*
X96519886Y-120417842D01*
X96508500Y-120365500D01*
X96508500Y-118516381D01*
X98849160Y-118516381D01*
X98849237Y-118517470D01*
X98851698Y-118521206D01*
X99125632Y-118731404D01*
X99131262Y-118735259D01*
X99431591Y-118917862D01*
X99437593Y-118921080D01*
X99755897Y-119070184D01*
X99762202Y-119072732D01*
X100094743Y-119186587D01*
X100101313Y-119188446D01*
X100444183Y-119265714D01*
X100450912Y-119266853D01*
X100800143Y-119306643D01*
X100806933Y-119307046D01*
X101158419Y-119308886D01*
X101165220Y-119308554D01*
X101514853Y-119272423D01*
X101521581Y-119271357D01*
X101865274Y-119197676D01*
X101871822Y-119195897D01*
X102205549Y-119085527D01*
X102211891Y-119083041D01*
X102531718Y-118937288D01*
X102537777Y-118934121D01*
X102839995Y-118754676D01*
X102845659Y-118750884D01*
X103126732Y-118539849D01*
X103131958Y-118535464D01*
X103141613Y-118526428D01*
X103149682Y-118512750D01*
X103149654Y-118512024D01*
X103144512Y-118503723D01*
X101012810Y-116372020D01*
X100998869Y-116364408D01*
X100997034Y-116364539D01*
X100990420Y-116368790D01*
X98856774Y-118502437D01*
X98849160Y-118516381D01*
X96508500Y-118516381D01*
X96508500Y-115991832D01*
X97687333Y-115991832D01*
X97705117Y-116342893D01*
X97705827Y-116349649D01*
X97761420Y-116696723D01*
X97762859Y-116703378D01*
X97855608Y-117042410D01*
X97857757Y-117048871D01*
X97986581Y-117375912D01*
X97989412Y-117382095D01*
X98152803Y-117693310D01*
X98156286Y-117699152D01*
X98352330Y-117990896D01*
X98356433Y-117996340D01*
X98476425Y-118138836D01*
X98489164Y-118147279D01*
X98499608Y-118141181D01*
X100627980Y-116012810D01*
X100634357Y-116001131D01*
X101364408Y-116001131D01*
X101364539Y-116002966D01*
X101368790Y-116009580D01*
X103499009Y-118139798D01*
X103512605Y-118147223D01*
X103522218Y-118140522D01*
X103622518Y-118023912D01*
X103626676Y-118018514D01*
X103825762Y-117728840D01*
X103829310Y-117723029D01*
X103995942Y-117413559D01*
X103998849Y-117407381D01*
X104131090Y-117081713D01*
X104133304Y-117075283D01*
X104229598Y-116737237D01*
X104231105Y-116730607D01*
X104290332Y-116384118D01*
X104291112Y-116377378D01*
X104312668Y-116024925D01*
X104312784Y-116021323D01*
X104312853Y-116001819D01*
X104312761Y-115998194D01*
X104293666Y-115645615D01*
X104292931Y-115638849D01*
X104236130Y-115291985D01*
X104234663Y-115285313D01*
X104140736Y-114946627D01*
X104138562Y-114940163D01*
X104008598Y-114613578D01*
X104005742Y-114607398D01*
X103841269Y-114296763D01*
X103837769Y-114290937D01*
X103640697Y-113999862D01*
X103636590Y-113994453D01*
X103523565Y-113861179D01*
X103510740Y-113852743D01*
X103500416Y-113858795D01*
X101372020Y-115987190D01*
X101364408Y-116001131D01*
X100634357Y-116001131D01*
X100635592Y-115998869D01*
X100635461Y-115997034D01*
X100631210Y-115990420D01*
X98500992Y-113860203D01*
X98487455Y-113852811D01*
X98477753Y-113859599D01*
X98370430Y-113985257D01*
X98366296Y-113990664D01*
X98168215Y-114281041D01*
X98164697Y-114286851D01*
X97999134Y-114596922D01*
X97996259Y-114603087D01*
X97865155Y-114929218D01*
X97862962Y-114935658D01*
X97767846Y-115274044D01*
X97766363Y-115280679D01*
X97708350Y-115627354D01*
X97707591Y-115634126D01*
X97687357Y-115985037D01*
X97687333Y-115991832D01*
X96508500Y-115991832D01*
X96508500Y-113486862D01*
X98849950Y-113486862D01*
X98849986Y-113487704D01*
X98855037Y-113495826D01*
X100987190Y-115627980D01*
X101001131Y-115635592D01*
X101002966Y-115635461D01*
X101009580Y-115631210D01*
X103142798Y-113497991D01*
X103150412Y-113484047D01*
X103150344Y-113483089D01*
X103145836Y-113476272D01*
X103144418Y-113475065D01*
X102864813Y-113262064D01*
X102859187Y-113258240D01*
X102558214Y-113076681D01*
X102552202Y-113073484D01*
X102233370Y-112925487D01*
X102227070Y-112922967D01*
X101894129Y-112810273D01*
X101887551Y-112808437D01*
X101544417Y-112732367D01*
X101537678Y-112731251D01*
X101188310Y-112692680D01*
X101181529Y-112692301D01*
X100830015Y-112691687D01*
X100823242Y-112692042D01*
X100473720Y-112729395D01*
X100467010Y-112730482D01*
X100123586Y-112805361D01*
X100117011Y-112807172D01*
X99783683Y-112918702D01*
X99777361Y-112921205D01*
X99458034Y-113068079D01*
X99451991Y-113071265D01*
X99150401Y-113251763D01*
X99144755Y-113255571D01*
X98864408Y-113467596D01*
X98859211Y-113471987D01*
X98857972Y-113473155D01*
X98849950Y-113486862D01*
X96508500Y-113486862D01*
X96508500Y-71225400D01*
X103791500Y-71225400D01*
X103791837Y-71228646D01*
X103791837Y-71228650D01*
X103800911Y-71316098D01*
X103802474Y-71331166D01*
X103858450Y-71498946D01*
X103951522Y-71649348D01*
X104076697Y-71774305D01*
X104082927Y-71778145D01*
X104082928Y-71778146D01*
X104218648Y-71861805D01*
X104227262Y-71867115D01*
X104280168Y-71884663D01*
X104338527Y-71925094D01*
X104365764Y-71990658D01*
X104366500Y-72004256D01*
X104366500Y-84851233D01*
X104365973Y-84862416D01*
X104364298Y-84869909D01*
X104364547Y-84877835D01*
X104364547Y-84877836D01*
X104366438Y-84937986D01*
X104366500Y-84941945D01*
X104366500Y-84969856D01*
X104366997Y-84973790D01*
X104366997Y-84973791D01*
X104367005Y-84973856D01*
X104367938Y-84985693D01*
X104369327Y-85029889D01*
X104374978Y-85049339D01*
X104378987Y-85068700D01*
X104381526Y-85088797D01*
X104384445Y-85096168D01*
X104384445Y-85096170D01*
X104397804Y-85129912D01*
X104401649Y-85141142D01*
X104413982Y-85183593D01*
X104418015Y-85190412D01*
X104418017Y-85190417D01*
X104424293Y-85201028D01*
X104432988Y-85218776D01*
X104440448Y-85237617D01*
X104445110Y-85244033D01*
X104445110Y-85244034D01*
X104466436Y-85273387D01*
X104472952Y-85283307D01*
X104486880Y-85306857D01*
X104495458Y-85321362D01*
X104509779Y-85335683D01*
X104522619Y-85350716D01*
X104534528Y-85367107D01*
X104540634Y-85372158D01*
X104568605Y-85395298D01*
X104577384Y-85403288D01*
X106069777Y-86895682D01*
X106103803Y-86957994D01*
X106102100Y-87018446D01*
X106080989Y-87094570D01*
X106057251Y-87316695D01*
X106057548Y-87321848D01*
X106057548Y-87321851D01*
X106063011Y-87416590D01*
X106070110Y-87539715D01*
X106071247Y-87544761D01*
X106071248Y-87544767D01*
X106091119Y-87632939D01*
X106119222Y-87757639D01*
X106203266Y-87964616D01*
X106319987Y-88155088D01*
X106466250Y-88323938D01*
X106638126Y-88466632D01*
X106708595Y-88507811D01*
X106711445Y-88509476D01*
X106760169Y-88561114D01*
X106773240Y-88630897D01*
X106746509Y-88696669D01*
X106706055Y-88730027D01*
X106693607Y-88736507D01*
X106689474Y-88739610D01*
X106689471Y-88739612D01*
X106665247Y-88757800D01*
X106514965Y-88870635D01*
X106360629Y-89032138D01*
X106234743Y-89216680D01*
X106219003Y-89250590D01*
X106145461Y-89409023D01*
X106140688Y-89419305D01*
X106080989Y-89634570D01*
X106057251Y-89856695D01*
X106057548Y-89861848D01*
X106057548Y-89861851D01*
X106063011Y-89956590D01*
X106070110Y-90079715D01*
X106071247Y-90084761D01*
X106071248Y-90084767D01*
X106091119Y-90172939D01*
X106119222Y-90297639D01*
X106203266Y-90504616D01*
X106319987Y-90695088D01*
X106466250Y-90863938D01*
X106638126Y-91006632D01*
X106708595Y-91047811D01*
X106711445Y-91049476D01*
X106760169Y-91101114D01*
X106773240Y-91170897D01*
X106746509Y-91236669D01*
X106706055Y-91270027D01*
X106693607Y-91276507D01*
X106689474Y-91279610D01*
X106689471Y-91279612D01*
X106665247Y-91297800D01*
X106514965Y-91410635D01*
X106360629Y-91572138D01*
X106234743Y-91756680D01*
X106140688Y-91959305D01*
X106080989Y-92174570D01*
X106057251Y-92396695D01*
X106057548Y-92401848D01*
X106057548Y-92401851D01*
X106063011Y-92496590D01*
X106070110Y-92619715D01*
X106071247Y-92624761D01*
X106071248Y-92624767D01*
X106091119Y-92712939D01*
X106119222Y-92837639D01*
X106203266Y-93044616D01*
X106319987Y-93235088D01*
X106466250Y-93403938D01*
X106638126Y-93546632D01*
X106708595Y-93587811D01*
X106711445Y-93589476D01*
X106760169Y-93641114D01*
X106773240Y-93710897D01*
X106746509Y-93776669D01*
X106706055Y-93810027D01*
X106693607Y-93816507D01*
X106689474Y-93819610D01*
X106689471Y-93819612D01*
X106534823Y-93935725D01*
X106514965Y-93950635D01*
X106360629Y-94112138D01*
X106234743Y-94296680D01*
X106140688Y-94499305D01*
X106080989Y-94714570D01*
X106057251Y-94936695D01*
X106057548Y-94941848D01*
X106057548Y-94941851D01*
X106063011Y-95036590D01*
X106070110Y-95159715D01*
X106071247Y-95164761D01*
X106071248Y-95164767D01*
X106091119Y-95252939D01*
X106119222Y-95377639D01*
X106203266Y-95584616D01*
X106319987Y-95775088D01*
X106466250Y-95943938D01*
X106638126Y-96086632D01*
X106708595Y-96127811D01*
X106711445Y-96129476D01*
X106760169Y-96181114D01*
X106773240Y-96250897D01*
X106746509Y-96316669D01*
X106706055Y-96350027D01*
X106693607Y-96356507D01*
X106689474Y-96359610D01*
X106689471Y-96359612D01*
X106534823Y-96475725D01*
X106514965Y-96490635D01*
X106360629Y-96652138D01*
X106234743Y-96836680D01*
X106140688Y-97039305D01*
X106080989Y-97254570D01*
X106057251Y-97476695D01*
X106057548Y-97481848D01*
X106057548Y-97481851D01*
X106063011Y-97576590D01*
X106070110Y-97699715D01*
X106071247Y-97704761D01*
X106071248Y-97704767D01*
X106091119Y-97792939D01*
X106119222Y-97917639D01*
X106203266Y-98124616D01*
X106319987Y-98315088D01*
X106466250Y-98483938D01*
X106638126Y-98626632D01*
X106708595Y-98667811D01*
X106711445Y-98669476D01*
X106760169Y-98721114D01*
X106773240Y-98790897D01*
X106746509Y-98856669D01*
X106706055Y-98890027D01*
X106693607Y-98896507D01*
X106689474Y-98899610D01*
X106689471Y-98899612D01*
X106665247Y-98917800D01*
X106514965Y-99030635D01*
X106360629Y-99192138D01*
X106234743Y-99376680D01*
X106140688Y-99579305D01*
X106080989Y-99794570D01*
X106057251Y-100016695D01*
X106057548Y-100021848D01*
X106057548Y-100021851D01*
X106063011Y-100116590D01*
X106070110Y-100239715D01*
X106071247Y-100244761D01*
X106071248Y-100244767D01*
X106091119Y-100332939D01*
X106119222Y-100457639D01*
X106203266Y-100664616D01*
X106214378Y-100682749D01*
X106282432Y-100793803D01*
X106319987Y-100855088D01*
X106466250Y-101023938D01*
X106638126Y-101166632D01*
X106708595Y-101207811D01*
X106711445Y-101209476D01*
X106760169Y-101261114D01*
X106773240Y-101330897D01*
X106746509Y-101396669D01*
X106706055Y-101430027D01*
X106693607Y-101436507D01*
X106689474Y-101439610D01*
X106689471Y-101439612D01*
X106665247Y-101457800D01*
X106514965Y-101570635D01*
X106360629Y-101732138D01*
X106234743Y-101916680D01*
X106140688Y-102119305D01*
X106080989Y-102334570D01*
X106057251Y-102556695D01*
X106057548Y-102561848D01*
X106057548Y-102561851D01*
X106063011Y-102656590D01*
X106070110Y-102779715D01*
X106071247Y-102784761D01*
X106071248Y-102784767D01*
X106091119Y-102872939D01*
X106119222Y-102997639D01*
X106203266Y-103204616D01*
X106319987Y-103395088D01*
X106466250Y-103563938D01*
X106638126Y-103706632D01*
X106708595Y-103747811D01*
X106711445Y-103749476D01*
X106760169Y-103801114D01*
X106773240Y-103870897D01*
X106746509Y-103936669D01*
X106706055Y-103970027D01*
X106693607Y-103976507D01*
X106689474Y-103979610D01*
X106689471Y-103979612D01*
X106665247Y-103997800D01*
X106514965Y-104110635D01*
X106360629Y-104272138D01*
X106234743Y-104456680D01*
X106140688Y-104659305D01*
X106080989Y-104874570D01*
X106057251Y-105096695D01*
X106057548Y-105101848D01*
X106057548Y-105101851D01*
X106063011Y-105196590D01*
X106070110Y-105319715D01*
X106071247Y-105324761D01*
X106071248Y-105324767D01*
X106091119Y-105412939D01*
X106119222Y-105537639D01*
X106203266Y-105744616D01*
X106319987Y-105935088D01*
X106466250Y-106103938D01*
X106638126Y-106246632D01*
X106708595Y-106287811D01*
X106711445Y-106289476D01*
X106760169Y-106341114D01*
X106773240Y-106410897D01*
X106746509Y-106476669D01*
X106706055Y-106510027D01*
X106693607Y-106516507D01*
X106689474Y-106519610D01*
X106689471Y-106519612D01*
X106665247Y-106537800D01*
X106514965Y-106650635D01*
X106360629Y-106812138D01*
X106234743Y-106996680D01*
X106140688Y-107199305D01*
X106080989Y-107414570D01*
X106057251Y-107636695D01*
X106057548Y-107641848D01*
X106057548Y-107641851D01*
X106063011Y-107736590D01*
X106070110Y-107859715D01*
X106071247Y-107864761D01*
X106071248Y-107864767D01*
X106091119Y-107952939D01*
X106119222Y-108077639D01*
X106203266Y-108284616D01*
X106319987Y-108475088D01*
X106466250Y-108643938D01*
X106638126Y-108786632D01*
X106708595Y-108827811D01*
X106711445Y-108829476D01*
X106760169Y-108881114D01*
X106773240Y-108950897D01*
X106746509Y-109016669D01*
X106706055Y-109050027D01*
X106693607Y-109056507D01*
X106689474Y-109059610D01*
X106689471Y-109059612D01*
X106665247Y-109077800D01*
X106514965Y-109190635D01*
X106360629Y-109352138D01*
X106357715Y-109356410D01*
X106357714Y-109356411D01*
X106345404Y-109374457D01*
X106234743Y-109536680D01*
X106140688Y-109739305D01*
X106080989Y-109954570D01*
X106057251Y-110176695D01*
X106057548Y-110181848D01*
X106057548Y-110181851D01*
X106063011Y-110276590D01*
X106070110Y-110399715D01*
X106071247Y-110404761D01*
X106071248Y-110404767D01*
X106091119Y-110492939D01*
X106119222Y-110617639D01*
X106203266Y-110824616D01*
X106205965Y-110829020D01*
X106296291Y-110976419D01*
X106319987Y-111015088D01*
X106466250Y-111183938D01*
X106638126Y-111326632D01*
X106708595Y-111367811D01*
X106711445Y-111369476D01*
X106760169Y-111421114D01*
X106773240Y-111490897D01*
X106746509Y-111556669D01*
X106706055Y-111590027D01*
X106693607Y-111596507D01*
X106689474Y-111599610D01*
X106689471Y-111599612D01*
X106665247Y-111617800D01*
X106514965Y-111730635D01*
X106511393Y-111734373D01*
X106399034Y-111851950D01*
X106360629Y-111892138D01*
X106357715Y-111896410D01*
X106357714Y-111896411D01*
X106350899Y-111906401D01*
X106234743Y-112076680D01*
X106201990Y-112147241D01*
X106145319Y-112269329D01*
X106140688Y-112279305D01*
X106080989Y-112494570D01*
X106057251Y-112716695D01*
X106057548Y-112721848D01*
X106057548Y-112721851D01*
X106063011Y-112816590D01*
X106070110Y-112939715D01*
X106071247Y-112944761D01*
X106071248Y-112944767D01*
X106091119Y-113032939D01*
X106119222Y-113157639D01*
X106203266Y-113364616D01*
X106205965Y-113369020D01*
X106269779Y-113473155D01*
X106319987Y-113555088D01*
X106466250Y-113723938D01*
X106542846Y-113787529D01*
X106621479Y-113852811D01*
X106638126Y-113866632D01*
X106708595Y-113907811D01*
X106711445Y-113909476D01*
X106760169Y-113961114D01*
X106773240Y-114030897D01*
X106746509Y-114096669D01*
X106706055Y-114130027D01*
X106693607Y-114136507D01*
X106689474Y-114139610D01*
X106689471Y-114139612D01*
X106665247Y-114157800D01*
X106514965Y-114270635D01*
X106360629Y-114432138D01*
X106234743Y-114616680D01*
X106140688Y-114819305D01*
X106080989Y-115034570D01*
X106057251Y-115256695D01*
X106057548Y-115261848D01*
X106057548Y-115261851D01*
X106063011Y-115356590D01*
X106070110Y-115479715D01*
X106071247Y-115484761D01*
X106071248Y-115484767D01*
X106091119Y-115572939D01*
X106119222Y-115697639D01*
X106203266Y-115904616D01*
X106319987Y-116095088D01*
X106466250Y-116263938D01*
X106638126Y-116406632D01*
X106708595Y-116447811D01*
X106711445Y-116449476D01*
X106760169Y-116501114D01*
X106773240Y-116570897D01*
X106746509Y-116636669D01*
X106706055Y-116670027D01*
X106693607Y-116676507D01*
X106689474Y-116679610D01*
X106689471Y-116679612D01*
X106665247Y-116697800D01*
X106514965Y-116810635D01*
X106360629Y-116972138D01*
X106357715Y-116976410D01*
X106357714Y-116976411D01*
X106345404Y-116994457D01*
X106234743Y-117156680D01*
X106140688Y-117359305D01*
X106080989Y-117574570D01*
X106057251Y-117796695D01*
X106057548Y-117801848D01*
X106057548Y-117801851D01*
X106063011Y-117896590D01*
X106070110Y-118019715D01*
X106071247Y-118024761D01*
X106071248Y-118024767D01*
X106085449Y-118087778D01*
X106119222Y-118237639D01*
X106203266Y-118444616D01*
X106319987Y-118635088D01*
X106466250Y-118803938D01*
X106638126Y-118946632D01*
X106831000Y-119059338D01*
X107039692Y-119139030D01*
X107044760Y-119140061D01*
X107044763Y-119140062D01*
X107139862Y-119159410D01*
X107258597Y-119183567D01*
X107263772Y-119183757D01*
X107263774Y-119183757D01*
X107476673Y-119191564D01*
X107476677Y-119191564D01*
X107481837Y-119191753D01*
X107486957Y-119191097D01*
X107486959Y-119191097D01*
X107698288Y-119164025D01*
X107698289Y-119164025D01*
X107703416Y-119163368D01*
X107708366Y-119161883D01*
X107912429Y-119100661D01*
X107912434Y-119100659D01*
X107917384Y-119099174D01*
X108117994Y-119000896D01*
X108299860Y-118871173D01*
X108458096Y-118713489D01*
X108517594Y-118630689D01*
X108585435Y-118536277D01*
X108588453Y-118532077D01*
X108596211Y-118516381D01*
X108685136Y-118336453D01*
X108685137Y-118336451D01*
X108687430Y-118331811D01*
X108745768Y-118139798D01*
X108750865Y-118123023D01*
X108750865Y-118123021D01*
X108752370Y-118118069D01*
X108755017Y-118097966D01*
X128948257Y-118097966D01*
X128978565Y-118232446D01*
X128981645Y-118242275D01*
X129061770Y-118439603D01*
X129066413Y-118448794D01*
X129177694Y-118630388D01*
X129183777Y-118638699D01*
X129323213Y-118799667D01*
X129330580Y-118806883D01*
X129494434Y-118942916D01*
X129502881Y-118948831D01*
X129686756Y-119056279D01*
X129696042Y-119060729D01*
X129895001Y-119136703D01*
X129904899Y-119139579D01*
X130008250Y-119160606D01*
X130022299Y-119159410D01*
X130026000Y-119149065D01*
X130026000Y-119148517D01*
X130534000Y-119148517D01*
X130538064Y-119162359D01*
X130551478Y-119164393D01*
X130558184Y-119163534D01*
X130568262Y-119161392D01*
X130772255Y-119100191D01*
X130781842Y-119096433D01*
X130973095Y-119002739D01*
X130981945Y-118997464D01*
X131155328Y-118873792D01*
X131163200Y-118867139D01*
X131314052Y-118716812D01*
X131320730Y-118708965D01*
X131445003Y-118536020D01*
X131450313Y-118527183D01*
X131455652Y-118516381D01*
X134849160Y-118516381D01*
X134849237Y-118517470D01*
X134851698Y-118521206D01*
X135125632Y-118731404D01*
X135131262Y-118735259D01*
X135431591Y-118917862D01*
X135437593Y-118921080D01*
X135755897Y-119070184D01*
X135762202Y-119072732D01*
X136094743Y-119186587D01*
X136101313Y-119188446D01*
X136444183Y-119265714D01*
X136450912Y-119266853D01*
X136800143Y-119306643D01*
X136806933Y-119307046D01*
X137158419Y-119308886D01*
X137165220Y-119308554D01*
X137514853Y-119272423D01*
X137521581Y-119271357D01*
X137865274Y-119197676D01*
X137871822Y-119195897D01*
X138205549Y-119085527D01*
X138211891Y-119083041D01*
X138531718Y-118937288D01*
X138537777Y-118934121D01*
X138839995Y-118754676D01*
X138845659Y-118750884D01*
X139126732Y-118539849D01*
X139131958Y-118535464D01*
X139141613Y-118526428D01*
X139149682Y-118512750D01*
X139149654Y-118512024D01*
X139144512Y-118503723D01*
X137012810Y-116372020D01*
X136998869Y-116364408D01*
X136997034Y-116364539D01*
X136990420Y-116368790D01*
X134856774Y-118502437D01*
X134849160Y-118516381D01*
X131455652Y-118516381D01*
X131544670Y-118336267D01*
X131548469Y-118326672D01*
X131610377Y-118122910D01*
X131612555Y-118112837D01*
X131613986Y-118101962D01*
X131611775Y-118087778D01*
X131598617Y-118084000D01*
X130552115Y-118084000D01*
X130536876Y-118088475D01*
X130535671Y-118089865D01*
X130534000Y-118097548D01*
X130534000Y-119148517D01*
X130026000Y-119148517D01*
X130026000Y-118102115D01*
X130021525Y-118086876D01*
X130020135Y-118085671D01*
X130012452Y-118084000D01*
X128963225Y-118084000D01*
X128949694Y-118087973D01*
X128948257Y-118097966D01*
X108755017Y-118097966D01*
X108781529Y-117896590D01*
X108783156Y-117830000D01*
X108764852Y-117607361D01*
X108710431Y-117390702D01*
X108621354Y-117185840D01*
X108553991Y-117081713D01*
X108502822Y-117002617D01*
X108502820Y-117002614D01*
X108500014Y-116998277D01*
X108349670Y-116833051D01*
X108345619Y-116829852D01*
X108345615Y-116829848D01*
X108178414Y-116697800D01*
X108178410Y-116697798D01*
X108174359Y-116694598D01*
X108133053Y-116671796D01*
X108083084Y-116621364D01*
X108068312Y-116551921D01*
X108093428Y-116485516D01*
X108120780Y-116458909D01*
X108164603Y-116427650D01*
X108299860Y-116331173D01*
X108458096Y-116173489D01*
X108517594Y-116090689D01*
X108585435Y-115996277D01*
X108588453Y-115992077D01*
X108590869Y-115987190D01*
X108685136Y-115796453D01*
X108685137Y-115796451D01*
X108687430Y-115791811D01*
X108735339Y-115634126D01*
X108750865Y-115583023D01*
X108750865Y-115583021D01*
X108752370Y-115578069D01*
X108781529Y-115356590D01*
X108783156Y-115290000D01*
X108764852Y-115067361D01*
X108710431Y-114850702D01*
X108621354Y-114645840D01*
X108500014Y-114458277D01*
X108349670Y-114293051D01*
X108345619Y-114289852D01*
X108345615Y-114289848D01*
X108178414Y-114157800D01*
X108178410Y-114157798D01*
X108174359Y-114154598D01*
X108133053Y-114131796D01*
X108083084Y-114081364D01*
X108068312Y-114011921D01*
X108093428Y-113945516D01*
X108120780Y-113918909D01*
X108164603Y-113887650D01*
X108299860Y-113791173D01*
X108458096Y-113633489D01*
X108517594Y-113550689D01*
X108585435Y-113456277D01*
X108588453Y-113452077D01*
X108687430Y-113251811D01*
X108752370Y-113038069D01*
X108781529Y-112816590D01*
X108781759Y-112807172D01*
X108783074Y-112753365D01*
X108783074Y-112753361D01*
X108783156Y-112750000D01*
X108764852Y-112527361D01*
X108710431Y-112310702D01*
X108621354Y-112105840D01*
X108581906Y-112044862D01*
X108502822Y-111922617D01*
X108502820Y-111922614D01*
X108500014Y-111918277D01*
X108349670Y-111753051D01*
X108345619Y-111749852D01*
X108345615Y-111749848D01*
X108178414Y-111617800D01*
X108178410Y-111617798D01*
X108174359Y-111614598D01*
X108133053Y-111591796D01*
X108083084Y-111541364D01*
X108068312Y-111471921D01*
X108093428Y-111405516D01*
X108120780Y-111378909D01*
X108164603Y-111347650D01*
X108299860Y-111251173D01*
X108458096Y-111093489D01*
X108517594Y-111010689D01*
X108585435Y-110916277D01*
X108588453Y-110912077D01*
X108662960Y-110761324D01*
X108685136Y-110716453D01*
X108685137Y-110716451D01*
X108687430Y-110711811D01*
X108752370Y-110498069D01*
X108781529Y-110276590D01*
X108783156Y-110210000D01*
X108764852Y-109987361D01*
X108710431Y-109770702D01*
X108621354Y-109565840D01*
X108581906Y-109504862D01*
X108502822Y-109382617D01*
X108502820Y-109382614D01*
X108500014Y-109378277D01*
X108349670Y-109213051D01*
X108345619Y-109209852D01*
X108345615Y-109209848D01*
X108178414Y-109077800D01*
X108178410Y-109077798D01*
X108174359Y-109074598D01*
X108133053Y-109051796D01*
X108083084Y-109001364D01*
X108068312Y-108931921D01*
X108093428Y-108865516D01*
X108120780Y-108838909D01*
X108164603Y-108807650D01*
X108299860Y-108711173D01*
X108458096Y-108553489D01*
X108517594Y-108470689D01*
X108585435Y-108376277D01*
X108588453Y-108372077D01*
X108687430Y-108171811D01*
X108752370Y-107958069D01*
X108781529Y-107736590D01*
X108783156Y-107670000D01*
X108764852Y-107447361D01*
X108710431Y-107230702D01*
X108621354Y-107025840D01*
X108500014Y-106838277D01*
X108349670Y-106673051D01*
X108345619Y-106669852D01*
X108345615Y-106669848D01*
X108178414Y-106537800D01*
X108178410Y-106537798D01*
X108174359Y-106534598D01*
X108133053Y-106511796D01*
X108083084Y-106461364D01*
X108068312Y-106391921D01*
X108093428Y-106325516D01*
X108120780Y-106298909D01*
X108164603Y-106267650D01*
X108299860Y-106171173D01*
X108458096Y-106013489D01*
X108517594Y-105930689D01*
X108585435Y-105836277D01*
X108588453Y-105832077D01*
X108687430Y-105631811D01*
X108752370Y-105418069D01*
X108781529Y-105196590D01*
X108783156Y-105130000D01*
X108764852Y-104907361D01*
X108710431Y-104690702D01*
X108621354Y-104485840D01*
X108500014Y-104298277D01*
X108349670Y-104133051D01*
X108345619Y-104129852D01*
X108345615Y-104129848D01*
X108178414Y-103997800D01*
X108178410Y-103997798D01*
X108174359Y-103994598D01*
X108133053Y-103971796D01*
X108083084Y-103921364D01*
X108068312Y-103851921D01*
X108093428Y-103785516D01*
X108120780Y-103758909D01*
X108164603Y-103727650D01*
X108299860Y-103631173D01*
X108458096Y-103473489D01*
X108517594Y-103390689D01*
X108585435Y-103296277D01*
X108588453Y-103292077D01*
X108687430Y-103091811D01*
X108752370Y-102878069D01*
X108781529Y-102656590D01*
X108783156Y-102590000D01*
X108764852Y-102367361D01*
X108710431Y-102150702D01*
X108621354Y-101945840D01*
X108500014Y-101758277D01*
X108349670Y-101593051D01*
X108345619Y-101589852D01*
X108345615Y-101589848D01*
X108178414Y-101457800D01*
X108178410Y-101457798D01*
X108174359Y-101454598D01*
X108133053Y-101431796D01*
X108083084Y-101381364D01*
X108068312Y-101311921D01*
X108093428Y-101245516D01*
X108120780Y-101218909D01*
X108164603Y-101187650D01*
X108299860Y-101091173D01*
X108458096Y-100933489D01*
X108517594Y-100850689D01*
X108585435Y-100756277D01*
X108588453Y-100752077D01*
X108687430Y-100551811D01*
X108752370Y-100338069D01*
X108781529Y-100116590D01*
X108783156Y-100050000D01*
X108764852Y-99827361D01*
X108710431Y-99610702D01*
X108621354Y-99405840D01*
X108500014Y-99218277D01*
X108349670Y-99053051D01*
X108345619Y-99049852D01*
X108345615Y-99049848D01*
X108178414Y-98917800D01*
X108178410Y-98917798D01*
X108174359Y-98914598D01*
X108133053Y-98891796D01*
X108083084Y-98841364D01*
X108068312Y-98771921D01*
X108093428Y-98705516D01*
X108120780Y-98678909D01*
X108164603Y-98647650D01*
X108299860Y-98551173D01*
X108458096Y-98393489D01*
X108517594Y-98310689D01*
X108585435Y-98216277D01*
X108588453Y-98212077D01*
X108687430Y-98011811D01*
X108752370Y-97798069D01*
X108781529Y-97576590D01*
X108783156Y-97510000D01*
X108764852Y-97287361D01*
X108710431Y-97070702D01*
X108621354Y-96865840D01*
X108500014Y-96678277D01*
X108349670Y-96513051D01*
X108345619Y-96509852D01*
X108345615Y-96509848D01*
X108178414Y-96377800D01*
X108178410Y-96377798D01*
X108174359Y-96374598D01*
X108133053Y-96351796D01*
X108083084Y-96301364D01*
X108068312Y-96231921D01*
X108093428Y-96165516D01*
X108120780Y-96138909D01*
X108164901Y-96107438D01*
X108299860Y-96011173D01*
X108328626Y-95982508D01*
X108454435Y-95857137D01*
X108458096Y-95853489D01*
X108517594Y-95770689D01*
X108585435Y-95676277D01*
X108588453Y-95672077D01*
X108687430Y-95471811D01*
X108752370Y-95258069D01*
X108781529Y-95036590D01*
X108783156Y-94970000D01*
X108764852Y-94747361D01*
X108710431Y-94530702D01*
X108621354Y-94325840D01*
X108500014Y-94138277D01*
X108349670Y-93973051D01*
X108345619Y-93969852D01*
X108345615Y-93969848D01*
X108178414Y-93837800D01*
X108178410Y-93837798D01*
X108174359Y-93834598D01*
X108133053Y-93811796D01*
X108083084Y-93761364D01*
X108068312Y-93691921D01*
X108093428Y-93625516D01*
X108120780Y-93598909D01*
X108164901Y-93567438D01*
X108299860Y-93471173D01*
X108328626Y-93442508D01*
X108454435Y-93317137D01*
X108458096Y-93313489D01*
X108517594Y-93230689D01*
X108585435Y-93136277D01*
X108588453Y-93132077D01*
X108687430Y-92931811D01*
X108752370Y-92718069D01*
X108781529Y-92496590D01*
X108783156Y-92430000D01*
X108764852Y-92207361D01*
X108710431Y-91990702D01*
X108621354Y-91785840D01*
X108500014Y-91598277D01*
X108349670Y-91433051D01*
X108345619Y-91429852D01*
X108345615Y-91429848D01*
X108178414Y-91297800D01*
X108178410Y-91297798D01*
X108174359Y-91294598D01*
X108133053Y-91271796D01*
X108083084Y-91221364D01*
X108068312Y-91151921D01*
X108093428Y-91085516D01*
X108120780Y-91058909D01*
X108164603Y-91027650D01*
X108299860Y-90931173D01*
X108458096Y-90773489D01*
X108517594Y-90690689D01*
X108585435Y-90596277D01*
X108585436Y-90596276D01*
X108588453Y-90592077D01*
X108644079Y-90479527D01*
X108685136Y-90396453D01*
X108685137Y-90396451D01*
X108687430Y-90391811D01*
X108752370Y-90178069D01*
X108781529Y-89956590D01*
X108783156Y-89890000D01*
X108764852Y-89667361D01*
X108710431Y-89450702D01*
X108621354Y-89245840D01*
X108523915Y-89095222D01*
X108502822Y-89062617D01*
X108502820Y-89062614D01*
X108500014Y-89058277D01*
X108349670Y-88893051D01*
X108345619Y-88889852D01*
X108345615Y-88889848D01*
X108178414Y-88757800D01*
X108178410Y-88757798D01*
X108174359Y-88754598D01*
X108133053Y-88731796D01*
X108083084Y-88681364D01*
X108068312Y-88611921D01*
X108093428Y-88545516D01*
X108120780Y-88518909D01*
X108164603Y-88487650D01*
X108299860Y-88391173D01*
X108458096Y-88233489D01*
X108517594Y-88150689D01*
X108585435Y-88056277D01*
X108588453Y-88052077D01*
X108633167Y-87961606D01*
X108685136Y-87856453D01*
X108685137Y-87856451D01*
X108687430Y-87851811D01*
X108752370Y-87638069D01*
X108781529Y-87416590D01*
X108783156Y-87350000D01*
X108764852Y-87127361D01*
X108710431Y-86910702D01*
X108621354Y-86705840D01*
X108581906Y-86644862D01*
X108502822Y-86522617D01*
X108502820Y-86522614D01*
X108500014Y-86518277D01*
X108349670Y-86353051D01*
X108345619Y-86349852D01*
X108345615Y-86349848D01*
X108178414Y-86217800D01*
X108178410Y-86217798D01*
X108174359Y-86214598D01*
X108133053Y-86191796D01*
X108083084Y-86141364D01*
X108068312Y-86071921D01*
X108093428Y-86005516D01*
X108120780Y-85978909D01*
X108164603Y-85947650D01*
X108299860Y-85851173D01*
X108458096Y-85693489D01*
X108588453Y-85512077D01*
X108646169Y-85395298D01*
X108685136Y-85316453D01*
X108685137Y-85316451D01*
X108687430Y-85311811D01*
X108752370Y-85098069D01*
X108781529Y-84876590D01*
X108782149Y-84851233D01*
X108783074Y-84813365D01*
X108783074Y-84813361D01*
X108783156Y-84810000D01*
X108764852Y-84587361D01*
X108710431Y-84370702D01*
X108621354Y-84165840D01*
X108500014Y-83978277D01*
X108349670Y-83813051D01*
X108345619Y-83809852D01*
X108345615Y-83809848D01*
X108178414Y-83677800D01*
X108178410Y-83677798D01*
X108174359Y-83674598D01*
X108133053Y-83651796D01*
X108083084Y-83601364D01*
X108068312Y-83531921D01*
X108093428Y-83465516D01*
X108120780Y-83438909D01*
X108164603Y-83407650D01*
X108299860Y-83311173D01*
X108458096Y-83153489D01*
X108517594Y-83070689D01*
X108585435Y-82976277D01*
X108588453Y-82972077D01*
X108687430Y-82771811D01*
X108752370Y-82558069D01*
X108781529Y-82336590D01*
X108783156Y-82270000D01*
X108764852Y-82047361D01*
X108710431Y-81830702D01*
X108621354Y-81625840D01*
X108500014Y-81438277D01*
X108496532Y-81434450D01*
X108352798Y-81276488D01*
X108321746Y-81212642D01*
X108330141Y-81142143D01*
X108375317Y-81087375D01*
X108401761Y-81073706D01*
X108508297Y-81033767D01*
X108516705Y-81030615D01*
X108633261Y-80943261D01*
X108720615Y-80826705D01*
X108771745Y-80690316D01*
X108778500Y-80628134D01*
X108778500Y-78831866D01*
X108771745Y-78769684D01*
X108720615Y-78633295D01*
X108633261Y-78516739D01*
X108516705Y-78429385D01*
X108380316Y-78378255D01*
X108318134Y-78371500D01*
X106521866Y-78371500D01*
X106459684Y-78378255D01*
X106323295Y-78429385D01*
X106206739Y-78516739D01*
X106119385Y-78633295D01*
X106068255Y-78769684D01*
X106061500Y-78831866D01*
X106061500Y-80628134D01*
X106068255Y-80690316D01*
X106119385Y-80826705D01*
X106206739Y-80943261D01*
X106323295Y-81030615D01*
X106331704Y-81033767D01*
X106331705Y-81033768D01*
X106440451Y-81074535D01*
X106497216Y-81117176D01*
X106521916Y-81183738D01*
X106506709Y-81253087D01*
X106487316Y-81279568D01*
X106360629Y-81412138D01*
X106234743Y-81596680D01*
X106140688Y-81799305D01*
X106080989Y-82014570D01*
X106057251Y-82236695D01*
X106057548Y-82241848D01*
X106057548Y-82241851D01*
X106063011Y-82336590D01*
X106070110Y-82459715D01*
X106071247Y-82464761D01*
X106071248Y-82464767D01*
X106091119Y-82552939D01*
X106119222Y-82677639D01*
X106203266Y-82884616D01*
X106319987Y-83075088D01*
X106466250Y-83243938D01*
X106638126Y-83386632D01*
X106708595Y-83427811D01*
X106711445Y-83429476D01*
X106760169Y-83481114D01*
X106773240Y-83550897D01*
X106746509Y-83616669D01*
X106706055Y-83650027D01*
X106693607Y-83656507D01*
X106689474Y-83659610D01*
X106689471Y-83659612D01*
X106665247Y-83677800D01*
X106514965Y-83790635D01*
X106360629Y-83952138D01*
X106234743Y-84136680D01*
X106219003Y-84170590D01*
X106145462Y-84329021D01*
X106140688Y-84339305D01*
X106080989Y-84554570D01*
X106057251Y-84776695D01*
X106057548Y-84781853D01*
X106057422Y-84787024D01*
X106055914Y-84786987D01*
X106041411Y-84849482D01*
X105990520Y-84898986D01*
X105920944Y-84913117D01*
X105854773Y-84887389D01*
X105842574Y-84876669D01*
X105670405Y-84704500D01*
X105636379Y-84642188D01*
X105633500Y-84615405D01*
X105633500Y-72004197D01*
X105653502Y-71936076D01*
X105707158Y-71889583D01*
X105719623Y-71884674D01*
X105767002Y-71868867D01*
X105767004Y-71868866D01*
X105773946Y-71866550D01*
X105924348Y-71773478D01*
X106049305Y-71648303D01*
X106084339Y-71591468D01*
X106138275Y-71503968D01*
X106138276Y-71503966D01*
X106142115Y-71497738D01*
X106197797Y-71329861D01*
X106199865Y-71309683D01*
X106208172Y-71228598D01*
X106208500Y-71225400D01*
X106208500Y-70599600D01*
X106207450Y-70589478D01*
X106198238Y-70500692D01*
X106198237Y-70500688D01*
X106197526Y-70493834D01*
X106173061Y-70420502D01*
X106143868Y-70333002D01*
X106141550Y-70326054D01*
X106048478Y-70175652D01*
X105961891Y-70089216D01*
X105927812Y-70026934D01*
X105932815Y-69956114D01*
X105961736Y-69911025D01*
X106044134Y-69828483D01*
X106049305Y-69823303D01*
X106084339Y-69766468D01*
X106138275Y-69678968D01*
X106138276Y-69678966D01*
X106142115Y-69672738D01*
X106197797Y-69504861D01*
X106199865Y-69484683D01*
X106208172Y-69403598D01*
X106208500Y-69400400D01*
X106208500Y-68827094D01*
X106228502Y-68758973D01*
X106245405Y-68737999D01*
X107992247Y-66991157D01*
X108000537Y-66983613D01*
X108007018Y-66979500D01*
X108018649Y-66967114D01*
X108079862Y-66931148D01*
X108150802Y-66933985D01*
X108208946Y-66974725D01*
X108235835Y-67040433D01*
X108236500Y-67053366D01*
X108236500Y-67940500D01*
X108216498Y-68008621D01*
X108162842Y-68055114D01*
X108110500Y-68066500D01*
X107999600Y-68066500D01*
X107996354Y-68066837D01*
X107996350Y-68066837D01*
X107900692Y-68076762D01*
X107900688Y-68076763D01*
X107893834Y-68077474D01*
X107887298Y-68079655D01*
X107887296Y-68079655D01*
X107866174Y-68086702D01*
X107726054Y-68133450D01*
X107575652Y-68226522D01*
X107450695Y-68351697D01*
X107446855Y-68357927D01*
X107446854Y-68357928D01*
X107363353Y-68493392D01*
X107357885Y-68502262D01*
X107353532Y-68515386D01*
X107323810Y-68604997D01*
X107302203Y-68670139D01*
X107301503Y-68676975D01*
X107301502Y-68676978D01*
X107299610Y-68695442D01*
X107291500Y-68774600D01*
X107291500Y-69400400D01*
X107291837Y-69403646D01*
X107291837Y-69403650D01*
X107300911Y-69491098D01*
X107302474Y-69506166D01*
X107358450Y-69673946D01*
X107451522Y-69824348D01*
X107456704Y-69829521D01*
X107538109Y-69910784D01*
X107572188Y-69973066D01*
X107567185Y-70043886D01*
X107538264Y-70088975D01*
X107495927Y-70131386D01*
X107450695Y-70176697D01*
X107357885Y-70327262D01*
X107355581Y-70334209D01*
X107326559Y-70421709D01*
X107302203Y-70495139D01*
X107291500Y-70599600D01*
X107291500Y-71225400D01*
X107291837Y-71228646D01*
X107291837Y-71228650D01*
X107300911Y-71316098D01*
X107302474Y-71331166D01*
X107358450Y-71498946D01*
X107451522Y-71649348D01*
X107576697Y-71774305D01*
X107582927Y-71778145D01*
X107582928Y-71778146D01*
X107718648Y-71861805D01*
X107727262Y-71867115D01*
X107780168Y-71884663D01*
X107888611Y-71920632D01*
X107888613Y-71920632D01*
X107895139Y-71922797D01*
X107901975Y-71923497D01*
X107901978Y-71923498D01*
X107945031Y-71927909D01*
X107999600Y-71933500D01*
X108835406Y-71933500D01*
X108903527Y-71953502D01*
X108924501Y-71970405D01*
X128929778Y-91975682D01*
X128963804Y-92037994D01*
X128962100Y-92098448D01*
X128940989Y-92174570D01*
X128940441Y-92179700D01*
X128940440Y-92179704D01*
X128936933Y-92212522D01*
X128917251Y-92396695D01*
X128917548Y-92401848D01*
X128917548Y-92401851D01*
X128923011Y-92496590D01*
X128930110Y-92619715D01*
X128931247Y-92624761D01*
X128931248Y-92624767D01*
X128951119Y-92712939D01*
X128979222Y-92837639D01*
X129063266Y-93044616D01*
X129179987Y-93235088D01*
X129326250Y-93403938D01*
X129498126Y-93546632D01*
X129568595Y-93587811D01*
X129571445Y-93589476D01*
X129620169Y-93641114D01*
X129633240Y-93710897D01*
X129606509Y-93776669D01*
X129566055Y-93810027D01*
X129553607Y-93816507D01*
X129549474Y-93819610D01*
X129549471Y-93819612D01*
X129394823Y-93935725D01*
X129374965Y-93950635D01*
X129220629Y-94112138D01*
X129094743Y-94296680D01*
X129000688Y-94499305D01*
X128940989Y-94714570D01*
X128917251Y-94936695D01*
X128917548Y-94941848D01*
X128917548Y-94941851D01*
X128923011Y-95036590D01*
X128930110Y-95159715D01*
X128931247Y-95164761D01*
X128931248Y-95164767D01*
X128951119Y-95252939D01*
X128979222Y-95377639D01*
X129063266Y-95584616D01*
X129179987Y-95775088D01*
X129326250Y-95943938D01*
X129498126Y-96086632D01*
X129568595Y-96127811D01*
X129571445Y-96129476D01*
X129620169Y-96181114D01*
X129633240Y-96250897D01*
X129606509Y-96316669D01*
X129566055Y-96350027D01*
X129553607Y-96356507D01*
X129549474Y-96359610D01*
X129549471Y-96359612D01*
X129394823Y-96475725D01*
X129374965Y-96490635D01*
X129220629Y-96652138D01*
X129094743Y-96836680D01*
X129000688Y-97039305D01*
X128940989Y-97254570D01*
X128917251Y-97476695D01*
X128917548Y-97481848D01*
X128917548Y-97481851D01*
X128923011Y-97576590D01*
X128930110Y-97699715D01*
X128931247Y-97704761D01*
X128931248Y-97704767D01*
X128951119Y-97792939D01*
X128979222Y-97917639D01*
X129063266Y-98124616D01*
X129179987Y-98315088D01*
X129326250Y-98483938D01*
X129498126Y-98626632D01*
X129568595Y-98667811D01*
X129571445Y-98669476D01*
X129620169Y-98721114D01*
X129633240Y-98790897D01*
X129606509Y-98856669D01*
X129566055Y-98890027D01*
X129553607Y-98896507D01*
X129549474Y-98899610D01*
X129549471Y-98899612D01*
X129525247Y-98917800D01*
X129374965Y-99030635D01*
X129220629Y-99192138D01*
X129094743Y-99376680D01*
X129000688Y-99579305D01*
X128940989Y-99794570D01*
X128917251Y-100016695D01*
X128917548Y-100021848D01*
X128917548Y-100021851D01*
X128923011Y-100116590D01*
X128930110Y-100239715D01*
X128931247Y-100244761D01*
X128931248Y-100244767D01*
X128951119Y-100332939D01*
X128979222Y-100457639D01*
X129063266Y-100664616D01*
X129074378Y-100682749D01*
X129142432Y-100793803D01*
X129179987Y-100855088D01*
X129326250Y-101023938D01*
X129498126Y-101166632D01*
X129568595Y-101207811D01*
X129571445Y-101209476D01*
X129620169Y-101261114D01*
X129633240Y-101330897D01*
X129606509Y-101396669D01*
X129566055Y-101430027D01*
X129553607Y-101436507D01*
X129549474Y-101439610D01*
X129549471Y-101439612D01*
X129525247Y-101457800D01*
X129374965Y-101570635D01*
X129220629Y-101732138D01*
X129094743Y-101916680D01*
X129000688Y-102119305D01*
X128940989Y-102334570D01*
X128917251Y-102556695D01*
X128917548Y-102561848D01*
X128917548Y-102561851D01*
X128923011Y-102656590D01*
X128930110Y-102779715D01*
X128931247Y-102784761D01*
X128931248Y-102784767D01*
X128951119Y-102872939D01*
X128979222Y-102997639D01*
X129063266Y-103204616D01*
X129179987Y-103395088D01*
X129326250Y-103563938D01*
X129498126Y-103706632D01*
X129568595Y-103747811D01*
X129571445Y-103749476D01*
X129620169Y-103801114D01*
X129633240Y-103870897D01*
X129606509Y-103936669D01*
X129566055Y-103970027D01*
X129553607Y-103976507D01*
X129549474Y-103979610D01*
X129549471Y-103979612D01*
X129525247Y-103997800D01*
X129374965Y-104110635D01*
X129220629Y-104272138D01*
X129094743Y-104456680D01*
X129000688Y-104659305D01*
X128940989Y-104874570D01*
X128917251Y-105096695D01*
X128917548Y-105101848D01*
X128917548Y-105101851D01*
X128923011Y-105196590D01*
X128930110Y-105319715D01*
X128931247Y-105324761D01*
X128931248Y-105324767D01*
X128951119Y-105412939D01*
X128979222Y-105537639D01*
X129063266Y-105744616D01*
X129179987Y-105935088D01*
X129326250Y-106103938D01*
X129498126Y-106246632D01*
X129568595Y-106287811D01*
X129571445Y-106289476D01*
X129620169Y-106341114D01*
X129633240Y-106410897D01*
X129606509Y-106476669D01*
X129566055Y-106510027D01*
X129553607Y-106516507D01*
X129549474Y-106519610D01*
X129549471Y-106519612D01*
X129525247Y-106537800D01*
X129374965Y-106650635D01*
X129220629Y-106812138D01*
X129094743Y-106996680D01*
X129000688Y-107199305D01*
X128940989Y-107414570D01*
X128917251Y-107636695D01*
X128917548Y-107641848D01*
X128917548Y-107641851D01*
X128923011Y-107736590D01*
X128930110Y-107859715D01*
X128931247Y-107864761D01*
X128931248Y-107864767D01*
X128951119Y-107952939D01*
X128979222Y-108077639D01*
X129063266Y-108284616D01*
X129179987Y-108475088D01*
X129326250Y-108643938D01*
X129498126Y-108786632D01*
X129568595Y-108827811D01*
X129571445Y-108829476D01*
X129620169Y-108881114D01*
X129633240Y-108950897D01*
X129606509Y-109016669D01*
X129566055Y-109050027D01*
X129553607Y-109056507D01*
X129549474Y-109059610D01*
X129549471Y-109059612D01*
X129525247Y-109077800D01*
X129374965Y-109190635D01*
X129220629Y-109352138D01*
X129217715Y-109356410D01*
X129217714Y-109356411D01*
X129205404Y-109374457D01*
X129094743Y-109536680D01*
X129000688Y-109739305D01*
X128940989Y-109954570D01*
X128917251Y-110176695D01*
X128917548Y-110181848D01*
X128917548Y-110181851D01*
X128923011Y-110276590D01*
X128930110Y-110399715D01*
X128931247Y-110404761D01*
X128931248Y-110404767D01*
X128951119Y-110492939D01*
X128979222Y-110617639D01*
X129063266Y-110824616D01*
X129065965Y-110829020D01*
X129156291Y-110976419D01*
X129179987Y-111015088D01*
X129326250Y-111183938D01*
X129498126Y-111326632D01*
X129568595Y-111367811D01*
X129571445Y-111369476D01*
X129620169Y-111421114D01*
X129633240Y-111490897D01*
X129606509Y-111556669D01*
X129566055Y-111590027D01*
X129553607Y-111596507D01*
X129549474Y-111599610D01*
X129549471Y-111599612D01*
X129525247Y-111617800D01*
X129374965Y-111730635D01*
X129371393Y-111734373D01*
X129259034Y-111851950D01*
X129220629Y-111892138D01*
X129217715Y-111896410D01*
X129217714Y-111896411D01*
X129210899Y-111906401D01*
X129094743Y-112076680D01*
X129061990Y-112147241D01*
X129005319Y-112269329D01*
X129000688Y-112279305D01*
X128940989Y-112494570D01*
X128917251Y-112716695D01*
X128917548Y-112721848D01*
X128917548Y-112721851D01*
X128923011Y-112816590D01*
X128930110Y-112939715D01*
X128931247Y-112944761D01*
X128931248Y-112944767D01*
X128951119Y-113032939D01*
X128979222Y-113157639D01*
X129063266Y-113364616D01*
X129065965Y-113369020D01*
X129129779Y-113473155D01*
X129179987Y-113555088D01*
X129326250Y-113723938D01*
X129402846Y-113787529D01*
X129481479Y-113852811D01*
X129498126Y-113866632D01*
X129568595Y-113907811D01*
X129571445Y-113909476D01*
X129620169Y-113961114D01*
X129633240Y-114030897D01*
X129606509Y-114096669D01*
X129566055Y-114130027D01*
X129553607Y-114136507D01*
X129549474Y-114139610D01*
X129549471Y-114139612D01*
X129525247Y-114157800D01*
X129374965Y-114270635D01*
X129220629Y-114432138D01*
X129094743Y-114616680D01*
X129000688Y-114819305D01*
X128940989Y-115034570D01*
X128917251Y-115256695D01*
X128917548Y-115261848D01*
X128917548Y-115261851D01*
X128923011Y-115356590D01*
X128930110Y-115479715D01*
X128931247Y-115484761D01*
X128931248Y-115484767D01*
X128951119Y-115572939D01*
X128979222Y-115697639D01*
X129063266Y-115904616D01*
X129179987Y-116095088D01*
X129326250Y-116263938D01*
X129498126Y-116406632D01*
X129571445Y-116449476D01*
X129571955Y-116449774D01*
X129620679Y-116501412D01*
X129633750Y-116571195D01*
X129607019Y-116636967D01*
X129566562Y-116670327D01*
X129558457Y-116674546D01*
X129549738Y-116680036D01*
X129379433Y-116807905D01*
X129371726Y-116814748D01*
X129224590Y-116968717D01*
X129218104Y-116976727D01*
X129098098Y-117152649D01*
X129093000Y-117161623D01*
X129003338Y-117354783D01*
X128999775Y-117364470D01*
X128944389Y-117564183D01*
X128945912Y-117572607D01*
X128958292Y-117576000D01*
X131598344Y-117576000D01*
X131611875Y-117572027D01*
X131613180Y-117562947D01*
X131571214Y-117395875D01*
X131567894Y-117386124D01*
X131482972Y-117190814D01*
X131478105Y-117181739D01*
X131362426Y-117002926D01*
X131356136Y-116994757D01*
X131212806Y-116837240D01*
X131205273Y-116830215D01*
X131038139Y-116698222D01*
X131029556Y-116692520D01*
X130992602Y-116672120D01*
X130942631Y-116621687D01*
X130927859Y-116552245D01*
X130952975Y-116485839D01*
X130980327Y-116459232D01*
X131003797Y-116442491D01*
X131159860Y-116331173D01*
X131318096Y-116173489D01*
X131377594Y-116090689D01*
X131445435Y-115996277D01*
X131448453Y-115992077D01*
X131448574Y-115991832D01*
X133687333Y-115991832D01*
X133705117Y-116342893D01*
X133705827Y-116349649D01*
X133761420Y-116696723D01*
X133762859Y-116703378D01*
X133855608Y-117042410D01*
X133857757Y-117048871D01*
X133986581Y-117375912D01*
X133989412Y-117382095D01*
X134152803Y-117693310D01*
X134156286Y-117699152D01*
X134352330Y-117990896D01*
X134356433Y-117996340D01*
X134476425Y-118138836D01*
X134489164Y-118147279D01*
X134499608Y-118141181D01*
X136627980Y-116012810D01*
X136634357Y-116001131D01*
X137364408Y-116001131D01*
X137364539Y-116002966D01*
X137368790Y-116009580D01*
X139499009Y-118139798D01*
X139512605Y-118147223D01*
X139522218Y-118140522D01*
X139622518Y-118023912D01*
X139626676Y-118018514D01*
X139825762Y-117728840D01*
X139829310Y-117723029D01*
X139995942Y-117413559D01*
X139998849Y-117407381D01*
X140131090Y-117081713D01*
X140133304Y-117075283D01*
X140229598Y-116737237D01*
X140231105Y-116730607D01*
X140290332Y-116384118D01*
X140291112Y-116377378D01*
X140312668Y-116024925D01*
X140312784Y-116021323D01*
X140312853Y-116001819D01*
X140312761Y-115998194D01*
X140293666Y-115645615D01*
X140292931Y-115638849D01*
X140236130Y-115291985D01*
X140234663Y-115285313D01*
X140140736Y-114946627D01*
X140138562Y-114940163D01*
X140008598Y-114613578D01*
X140005742Y-114607398D01*
X139841269Y-114296763D01*
X139837769Y-114290937D01*
X139640697Y-113999862D01*
X139636590Y-113994453D01*
X139523565Y-113861179D01*
X139510740Y-113852743D01*
X139500416Y-113858795D01*
X137372020Y-115987190D01*
X137364408Y-116001131D01*
X136634357Y-116001131D01*
X136635592Y-115998869D01*
X136635461Y-115997034D01*
X136631210Y-115990420D01*
X134500992Y-113860203D01*
X134487455Y-113852811D01*
X134477753Y-113859599D01*
X134370430Y-113985257D01*
X134366296Y-113990664D01*
X134168215Y-114281041D01*
X134164697Y-114286851D01*
X133999134Y-114596922D01*
X133996259Y-114603087D01*
X133865155Y-114929218D01*
X133862962Y-114935658D01*
X133767846Y-115274044D01*
X133766363Y-115280679D01*
X133708350Y-115627354D01*
X133707591Y-115634126D01*
X133687357Y-115985037D01*
X133687333Y-115991832D01*
X131448574Y-115991832D01*
X131450869Y-115987190D01*
X131545136Y-115796453D01*
X131545137Y-115796451D01*
X131547430Y-115791811D01*
X131595339Y-115634126D01*
X131610865Y-115583023D01*
X131610865Y-115583021D01*
X131612370Y-115578069D01*
X131641529Y-115356590D01*
X131643156Y-115290000D01*
X131624852Y-115067361D01*
X131596821Y-114955765D01*
X131599625Y-114884823D01*
X131629930Y-114835974D01*
X132979042Y-113486862D01*
X134849950Y-113486862D01*
X134849986Y-113487704D01*
X134855037Y-113495826D01*
X136987190Y-115627980D01*
X137001131Y-115635592D01*
X137002966Y-115635461D01*
X137009580Y-115631210D01*
X139142798Y-113497991D01*
X139150412Y-113484047D01*
X139150344Y-113483089D01*
X139145836Y-113476272D01*
X139144418Y-113475065D01*
X138864813Y-113262064D01*
X138859187Y-113258240D01*
X138558214Y-113076681D01*
X138552202Y-113073484D01*
X138233370Y-112925487D01*
X138227070Y-112922967D01*
X137894129Y-112810273D01*
X137887551Y-112808437D01*
X137544417Y-112732367D01*
X137537678Y-112731251D01*
X137188310Y-112692680D01*
X137181529Y-112692301D01*
X136830015Y-112691687D01*
X136823242Y-112692042D01*
X136473720Y-112729395D01*
X136467010Y-112730482D01*
X136123586Y-112805361D01*
X136117011Y-112807172D01*
X135783683Y-112918702D01*
X135777361Y-112921205D01*
X135458034Y-113068079D01*
X135451991Y-113071265D01*
X135150401Y-113251763D01*
X135144755Y-113255571D01*
X134864408Y-113467596D01*
X134859211Y-113471987D01*
X134857972Y-113473155D01*
X134849950Y-113486862D01*
X132979042Y-113486862D01*
X134190327Y-112275577D01*
X134198617Y-112268033D01*
X134205098Y-112263920D01*
X134251739Y-112214252D01*
X134254493Y-112211411D01*
X134274214Y-112191690D01*
X134276692Y-112188495D01*
X134284398Y-112179473D01*
X134309238Y-112153021D01*
X134314666Y-112147241D01*
X134324426Y-112129488D01*
X134335279Y-112112965D01*
X134337121Y-112110590D01*
X134347693Y-112096961D01*
X134365256Y-112056377D01*
X134370463Y-112045747D01*
X134391775Y-112006980D01*
X134393746Y-111999303D01*
X134393748Y-111999298D01*
X134396812Y-111987362D01*
X134403218Y-111968650D01*
X134408114Y-111957337D01*
X134411261Y-111950065D01*
X134415609Y-111922617D01*
X134418177Y-111906401D01*
X134420584Y-111894780D01*
X134429608Y-111859631D01*
X134429608Y-111859630D01*
X134431580Y-111851950D01*
X134431580Y-111831689D01*
X134433131Y-111811978D01*
X134435059Y-111799805D01*
X134436299Y-111791977D01*
X134432139Y-111747966D01*
X134431580Y-111736109D01*
X134431580Y-100935423D01*
X134451582Y-100867302D01*
X134505238Y-100820809D01*
X134575512Y-100810705D01*
X134608826Y-100820315D01*
X134717712Y-100868794D01*
X134811112Y-100888647D01*
X134898056Y-100907128D01*
X134898061Y-100907128D01*
X134904513Y-100908500D01*
X135095487Y-100908500D01*
X135101939Y-100907128D01*
X135101944Y-100907128D01*
X135188887Y-100888647D01*
X135282288Y-100868794D01*
X135288319Y-100866109D01*
X135450722Y-100793803D01*
X135450724Y-100793802D01*
X135456752Y-100791118D01*
X135611253Y-100678866D01*
X135739040Y-100536944D01*
X135834527Y-100371556D01*
X135893542Y-100189928D01*
X135913504Y-100000000D01*
X135893542Y-99810072D01*
X135834527Y-99628444D01*
X135739040Y-99463056D01*
X135665863Y-99381785D01*
X135635147Y-99317779D01*
X135633500Y-99297476D01*
X135633500Y-72991267D01*
X135634027Y-72980084D01*
X135635702Y-72972591D01*
X135633562Y-72904514D01*
X135633500Y-72900555D01*
X135633500Y-72872644D01*
X135632995Y-72868644D01*
X135632062Y-72856801D01*
X135630922Y-72820529D01*
X135630673Y-72812610D01*
X135625022Y-72793158D01*
X135621014Y-72773806D01*
X135619467Y-72761563D01*
X135618474Y-72753703D01*
X135615556Y-72746332D01*
X135602200Y-72712597D01*
X135598355Y-72701370D01*
X135597721Y-72699187D01*
X135586018Y-72658907D01*
X135575707Y-72641472D01*
X135567012Y-72623724D01*
X135559552Y-72604883D01*
X135533564Y-72569113D01*
X135527048Y-72559193D01*
X135508580Y-72527965D01*
X135508578Y-72527962D01*
X135504542Y-72521138D01*
X135490221Y-72506817D01*
X135477380Y-72491783D01*
X135470131Y-72481806D01*
X135465472Y-72475393D01*
X135431395Y-72447202D01*
X135422616Y-72439212D01*
X134245405Y-71262000D01*
X134211379Y-71199688D01*
X134208500Y-71172905D01*
X134208500Y-70599600D01*
X134207450Y-70589478D01*
X134198238Y-70500692D01*
X134198237Y-70500688D01*
X134197526Y-70493834D01*
X134173061Y-70420502D01*
X134143868Y-70333002D01*
X134141550Y-70326054D01*
X134048478Y-70175652D01*
X133961891Y-70089216D01*
X133927812Y-70026934D01*
X133932815Y-69956114D01*
X133961736Y-69911025D01*
X134044134Y-69828483D01*
X134049305Y-69823303D01*
X134084339Y-69766468D01*
X134138275Y-69678968D01*
X134138276Y-69678966D01*
X134142115Y-69672738D01*
X134197797Y-69504861D01*
X134199865Y-69484683D01*
X134208172Y-69403598D01*
X134208500Y-69400400D01*
X134208500Y-68774600D01*
X134206063Y-68751111D01*
X134198238Y-68675692D01*
X134198237Y-68675688D01*
X134197526Y-68668834D01*
X134193852Y-68657820D01*
X134143868Y-68508002D01*
X134141550Y-68501054D01*
X134048478Y-68350652D01*
X133923303Y-68225695D01*
X133823641Y-68164262D01*
X133778968Y-68136725D01*
X133778966Y-68136724D01*
X133772738Y-68132885D01*
X133719832Y-68115337D01*
X133661473Y-68074906D01*
X133634236Y-68009342D01*
X133633500Y-67995744D01*
X133633500Y-66078763D01*
X133634027Y-66067579D01*
X133635701Y-66060091D01*
X133633562Y-65992032D01*
X133633500Y-65988075D01*
X133633500Y-65960144D01*
X133632994Y-65956138D01*
X133632061Y-65944292D01*
X133631742Y-65934121D01*
X133630673Y-65900110D01*
X133625022Y-65880658D01*
X133621014Y-65861306D01*
X133619467Y-65849063D01*
X133618474Y-65841203D01*
X133615218Y-65832979D01*
X133602200Y-65800097D01*
X133598355Y-65788870D01*
X133592478Y-65768642D01*
X133586018Y-65746407D01*
X133581984Y-65739585D01*
X133581981Y-65739579D01*
X133575706Y-65728968D01*
X133567010Y-65711218D01*
X133562472Y-65699756D01*
X133562469Y-65699751D01*
X133559552Y-65692383D01*
X133546901Y-65674970D01*
X133533573Y-65656625D01*
X133527057Y-65646707D01*
X133508575Y-65615457D01*
X133504542Y-65608637D01*
X133490218Y-65594313D01*
X133477376Y-65579278D01*
X133465472Y-65562893D01*
X133431406Y-65534711D01*
X133422627Y-65526722D01*
X133412286Y-65516381D01*
X134849160Y-65516381D01*
X134849237Y-65517470D01*
X134851698Y-65521206D01*
X135125632Y-65731404D01*
X135131262Y-65735259D01*
X135431591Y-65917862D01*
X135437593Y-65921080D01*
X135755897Y-66070184D01*
X135762202Y-66072732D01*
X136094743Y-66186587D01*
X136101313Y-66188446D01*
X136444183Y-66265714D01*
X136450912Y-66266853D01*
X136800143Y-66306643D01*
X136806933Y-66307046D01*
X137158419Y-66308886D01*
X137165220Y-66308554D01*
X137514853Y-66272423D01*
X137521581Y-66271357D01*
X137865274Y-66197676D01*
X137871822Y-66195897D01*
X138205549Y-66085527D01*
X138211891Y-66083041D01*
X138531718Y-65937288D01*
X138537777Y-65934121D01*
X138839995Y-65754676D01*
X138845659Y-65750884D01*
X139126732Y-65539849D01*
X139131958Y-65535464D01*
X139141613Y-65526428D01*
X139149682Y-65512750D01*
X139149654Y-65512024D01*
X139144512Y-65503723D01*
X137012810Y-63372020D01*
X136998869Y-63364408D01*
X136997034Y-63364539D01*
X136990420Y-63368790D01*
X134856774Y-65502437D01*
X134849160Y-65516381D01*
X133412286Y-65516381D01*
X132003652Y-64107747D01*
X131996112Y-64099461D01*
X131992000Y-64092982D01*
X131974189Y-64076256D01*
X131942349Y-64046357D01*
X131939507Y-64043602D01*
X131919770Y-64023865D01*
X131916573Y-64021385D01*
X131907551Y-64013680D01*
X131881100Y-63988841D01*
X131875321Y-63983414D01*
X131868375Y-63979595D01*
X131868372Y-63979593D01*
X131857566Y-63973652D01*
X131841047Y-63962801D01*
X131840583Y-63962441D01*
X131825041Y-63950386D01*
X131817772Y-63947241D01*
X131817768Y-63947238D01*
X131784463Y-63932826D01*
X131773813Y-63927609D01*
X131735060Y-63906305D01*
X131715437Y-63901267D01*
X131696734Y-63894863D01*
X131685420Y-63889967D01*
X131685419Y-63889967D01*
X131678145Y-63886819D01*
X131670322Y-63885580D01*
X131670312Y-63885577D01*
X131634476Y-63879901D01*
X131622856Y-63877495D01*
X131587711Y-63868472D01*
X131587710Y-63868472D01*
X131580030Y-63866500D01*
X131559776Y-63866500D01*
X131540065Y-63864949D01*
X131527886Y-63863020D01*
X131520057Y-63861780D01*
X131512165Y-63862526D01*
X131476039Y-63865941D01*
X131464181Y-63866500D01*
X131372580Y-63866500D01*
X131304459Y-63846498D01*
X131257966Y-63792842D01*
X131251958Y-63776917D01*
X131241214Y-63741331D01*
X131241213Y-63741328D01*
X131239432Y-63735429D01*
X131143359Y-63554742D01*
X131139469Y-63549972D01*
X131139466Y-63549968D01*
X131017915Y-63400932D01*
X131017912Y-63400929D01*
X131014020Y-63396157D01*
X130999468Y-63384118D01*
X130935181Y-63330935D01*
X130856341Y-63265713D01*
X130676329Y-63168381D01*
X130480840Y-63107867D01*
X130474718Y-63107224D01*
X130474715Y-63107223D01*
X130283449Y-63087121D01*
X130283447Y-63087121D01*
X130277320Y-63086477D01*
X130218072Y-63091869D01*
X130079661Y-63104465D01*
X130079658Y-63104466D01*
X130073522Y-63105024D01*
X130067616Y-63106762D01*
X130067612Y-63106763D01*
X129999186Y-63126902D01*
X129877207Y-63162802D01*
X129871749Y-63165655D01*
X129871745Y-63165657D01*
X129695853Y-63257612D01*
X129695120Y-63256211D01*
X129634558Y-63274543D01*
X129573580Y-63259382D01*
X129411560Y-63171777D01*
X129400245Y-63167021D01*
X129271308Y-63127108D01*
X129257205Y-63126902D01*
X129254000Y-63133657D01*
X129254000Y-63867112D01*
X129248101Y-63905213D01*
X129246226Y-63911122D01*
X129246225Y-63911129D01*
X129244364Y-63916994D01*
X129226500Y-64076256D01*
X129226500Y-64916495D01*
X129241420Y-65068664D01*
X129243202Y-65074566D01*
X129248622Y-65092518D01*
X129254000Y-65128936D01*
X129254000Y-65859411D01*
X129257973Y-65872942D01*
X129265768Y-65874062D01*
X129386686Y-65838474D01*
X129398070Y-65833875D01*
X129573872Y-65741968D01*
X129574716Y-65743583D01*
X129634460Y-65725497D01*
X129695439Y-65740657D01*
X129863671Y-65831619D01*
X130059160Y-65892133D01*
X130065282Y-65892776D01*
X130065285Y-65892777D01*
X130256551Y-65912879D01*
X130256553Y-65912879D01*
X130262680Y-65913523D01*
X130348066Y-65905752D01*
X130460339Y-65895535D01*
X130460342Y-65895534D01*
X130466478Y-65894976D01*
X130472384Y-65893238D01*
X130472388Y-65893237D01*
X130619828Y-65849843D01*
X130662793Y-65837198D01*
X130668251Y-65834345D01*
X130668255Y-65834343D01*
X130793928Y-65768642D01*
X130844147Y-65742388D01*
X130857809Y-65731404D01*
X130998824Y-65618025D01*
X131003631Y-65614160D01*
X131135172Y-65457396D01*
X131205557Y-65329365D01*
X131255902Y-65279307D01*
X131325319Y-65264413D01*
X131391768Y-65289414D01*
X131405067Y-65300971D01*
X132329595Y-66225499D01*
X132363621Y-66287811D01*
X132366500Y-66314594D01*
X132366500Y-67995803D01*
X132346498Y-68063924D01*
X132292842Y-68110417D01*
X132280377Y-68115326D01*
X132232998Y-68131133D01*
X132232996Y-68131134D01*
X132226054Y-68133450D01*
X132219830Y-68137301D01*
X132219829Y-68137302D01*
X132132969Y-68191053D01*
X132075652Y-68226522D01*
X131950695Y-68351697D01*
X131946855Y-68357927D01*
X131946854Y-68357928D01*
X131863353Y-68493392D01*
X131857885Y-68502262D01*
X131853532Y-68515386D01*
X131823810Y-68604997D01*
X131802203Y-68670139D01*
X131801503Y-68676975D01*
X131801502Y-68676978D01*
X131799610Y-68695442D01*
X131791500Y-68774600D01*
X131791500Y-69400400D01*
X131791837Y-69403646D01*
X131791837Y-69403650D01*
X131800911Y-69491098D01*
X131802474Y-69506166D01*
X131858450Y-69673946D01*
X131951522Y-69824348D01*
X131956704Y-69829521D01*
X132038109Y-69910784D01*
X132072188Y-69973066D01*
X132067185Y-70043886D01*
X132038264Y-70088975D01*
X131995927Y-70131386D01*
X131950695Y-70176697D01*
X131857885Y-70327262D01*
X131855581Y-70334209D01*
X131826559Y-70421709D01*
X131802203Y-70495139D01*
X131791500Y-70599600D01*
X131791500Y-71225400D01*
X131791837Y-71228646D01*
X131791837Y-71228650D01*
X131800911Y-71316098D01*
X131802474Y-71331166D01*
X131858450Y-71498946D01*
X131951522Y-71649348D01*
X132076697Y-71774305D01*
X132082927Y-71778145D01*
X132082928Y-71778146D01*
X132218648Y-71861805D01*
X132227262Y-71867115D01*
X132280168Y-71884663D01*
X132388611Y-71920632D01*
X132388613Y-71920632D01*
X132395139Y-71922797D01*
X132401975Y-71923497D01*
X132401978Y-71923498D01*
X132445031Y-71927909D01*
X132499600Y-71933500D01*
X133072906Y-71933500D01*
X133141027Y-71953502D01*
X133162001Y-71970405D01*
X134329595Y-73138000D01*
X134363621Y-73200312D01*
X134366500Y-73227095D01*
X134366500Y-74578906D01*
X134346498Y-74647027D01*
X134292842Y-74693520D01*
X134222568Y-74703624D01*
X134157988Y-74674130D01*
X134151405Y-74668001D01*
X132465847Y-72982442D01*
X130745405Y-71262000D01*
X130711379Y-71199688D01*
X130708500Y-71172905D01*
X130708500Y-70599600D01*
X130707450Y-70589478D01*
X130698238Y-70500692D01*
X130698237Y-70500688D01*
X130697526Y-70493834D01*
X130673061Y-70420502D01*
X130643868Y-70333002D01*
X130641550Y-70326054D01*
X130548478Y-70175652D01*
X130461891Y-70089216D01*
X130427812Y-70026934D01*
X130432815Y-69956114D01*
X130461736Y-69911025D01*
X130544134Y-69828483D01*
X130549305Y-69823303D01*
X130584339Y-69766468D01*
X130638275Y-69678968D01*
X130638276Y-69678966D01*
X130642115Y-69672738D01*
X130697797Y-69504861D01*
X130699865Y-69484683D01*
X130708172Y-69403598D01*
X130708500Y-69400400D01*
X130708500Y-68774600D01*
X130706063Y-68751111D01*
X130698238Y-68675692D01*
X130698237Y-68675688D01*
X130697526Y-68668834D01*
X130693852Y-68657820D01*
X130643868Y-68508002D01*
X130641550Y-68501054D01*
X130548478Y-68350652D01*
X130423303Y-68225695D01*
X130323641Y-68164262D01*
X130278968Y-68136725D01*
X130278966Y-68136724D01*
X130272738Y-68132885D01*
X130133500Y-68086702D01*
X130111389Y-68079368D01*
X130111387Y-68079368D01*
X130104861Y-68077203D01*
X130098025Y-68076503D01*
X130098022Y-68076502D01*
X130054969Y-68072091D01*
X130000400Y-68066500D01*
X129427094Y-68066500D01*
X129358973Y-68046498D01*
X129338003Y-68029599D01*
X128400403Y-67091998D01*
X128366379Y-67029688D01*
X128363500Y-67002905D01*
X128363500Y-65917964D01*
X128383502Y-65849843D01*
X128437158Y-65803350D01*
X128507432Y-65793246D01*
X128549430Y-65807129D01*
X128588445Y-65828225D01*
X128599755Y-65832979D01*
X128728692Y-65872892D01*
X128742795Y-65873098D01*
X128746000Y-65866343D01*
X128746000Y-65132888D01*
X128751899Y-65094787D01*
X128753774Y-65088878D01*
X128753775Y-65088871D01*
X128755636Y-65083006D01*
X128773500Y-64923744D01*
X128773500Y-64083505D01*
X128758580Y-63931336D01*
X128751378Y-63907482D01*
X128746000Y-63871064D01*
X128746000Y-63140589D01*
X128742027Y-63127058D01*
X128734232Y-63125938D01*
X128613314Y-63161526D01*
X128601930Y-63166125D01*
X128426128Y-63258032D01*
X128425284Y-63256417D01*
X128365540Y-63274503D01*
X128304561Y-63259343D01*
X128136329Y-63168381D01*
X127940840Y-63107867D01*
X127934718Y-63107224D01*
X127934715Y-63107223D01*
X127743449Y-63087121D01*
X127743447Y-63087121D01*
X127737320Y-63086477D01*
X127678072Y-63091869D01*
X127539661Y-63104465D01*
X127539658Y-63104466D01*
X127533522Y-63105024D01*
X127527616Y-63106762D01*
X127527612Y-63106763D01*
X127458486Y-63127108D01*
X127339500Y-63162127D01*
X127268504Y-63162172D01*
X127246716Y-63153140D01*
X127241705Y-63149385D01*
X127233304Y-63146236D01*
X127233301Y-63146234D01*
X127121881Y-63104465D01*
X127105316Y-63098255D01*
X127043134Y-63091500D01*
X125876866Y-63091500D01*
X125814684Y-63098255D01*
X125678295Y-63149385D01*
X125561739Y-63236739D01*
X125474385Y-63353295D01*
X125423255Y-63489684D01*
X125416500Y-63551866D01*
X125416500Y-65448134D01*
X125423255Y-65510316D01*
X125474385Y-65646705D01*
X125561739Y-65763261D01*
X125678295Y-65850615D01*
X125686704Y-65853767D01*
X125686705Y-65853768D01*
X125744729Y-65875520D01*
X125801494Y-65918161D01*
X125826194Y-65984722D01*
X125826500Y-65993502D01*
X125826500Y-67940500D01*
X125806498Y-68008621D01*
X125752842Y-68055114D01*
X125700500Y-68066500D01*
X125499600Y-68066500D01*
X125496354Y-68066837D01*
X125496350Y-68066837D01*
X125400692Y-68076762D01*
X125400688Y-68076763D01*
X125393834Y-68077474D01*
X125387298Y-68079655D01*
X125387296Y-68079655D01*
X125366174Y-68086702D01*
X125226054Y-68133450D01*
X125075652Y-68226522D01*
X124950695Y-68351697D01*
X124946855Y-68357927D01*
X124946854Y-68357928D01*
X124863353Y-68493392D01*
X124857885Y-68502262D01*
X124853532Y-68515386D01*
X124823810Y-68604997D01*
X124802203Y-68670139D01*
X124801503Y-68676975D01*
X124801502Y-68676978D01*
X124799610Y-68695442D01*
X124791500Y-68774600D01*
X124791500Y-69400400D01*
X124791837Y-69403646D01*
X124791837Y-69403650D01*
X124800911Y-69491098D01*
X124802474Y-69506166D01*
X124858450Y-69673946D01*
X124951522Y-69824348D01*
X124956704Y-69829521D01*
X125038109Y-69910784D01*
X125072188Y-69973066D01*
X125067185Y-70043886D01*
X125038264Y-70088975D01*
X124995927Y-70131386D01*
X124950695Y-70176697D01*
X124857885Y-70327262D01*
X124855581Y-70334209D01*
X124826559Y-70421709D01*
X124802203Y-70495139D01*
X124791500Y-70599600D01*
X124791500Y-71225400D01*
X124791837Y-71228646D01*
X124791837Y-71228650D01*
X124800911Y-71316098D01*
X124802474Y-71331166D01*
X124858450Y-71498946D01*
X124951522Y-71649348D01*
X125076697Y-71774305D01*
X125082927Y-71778145D01*
X125082928Y-71778146D01*
X125218648Y-71861805D01*
X125227262Y-71867115D01*
X125280168Y-71884663D01*
X125388611Y-71920632D01*
X125388613Y-71920632D01*
X125395139Y-71922797D01*
X125401975Y-71923497D01*
X125401978Y-71923498D01*
X125445031Y-71927909D01*
X125499600Y-71933500D01*
X126072906Y-71933500D01*
X126141027Y-71953502D01*
X126162001Y-71970405D01*
X132678155Y-78486559D01*
X132712181Y-78548871D01*
X132715060Y-78575654D01*
X132715060Y-86923955D01*
X132695058Y-86992076D01*
X132641402Y-87038569D01*
X132571128Y-87048673D01*
X132506548Y-87019179D01*
X132499965Y-87013050D01*
X131336216Y-85849301D01*
X131302190Y-85786989D01*
X131307255Y-85716174D01*
X131322986Y-85686684D01*
X131448453Y-85512077D01*
X131506169Y-85395298D01*
X131545136Y-85316453D01*
X131545137Y-85316451D01*
X131547430Y-85311811D01*
X131612370Y-85098069D01*
X131641529Y-84876590D01*
X131642149Y-84851233D01*
X131643074Y-84813365D01*
X131643074Y-84813361D01*
X131643156Y-84810000D01*
X131624852Y-84587361D01*
X131570431Y-84370702D01*
X131481354Y-84165840D01*
X131360014Y-83978277D01*
X131209670Y-83813051D01*
X131205619Y-83809852D01*
X131205615Y-83809848D01*
X131038414Y-83677800D01*
X131038410Y-83677798D01*
X131034359Y-83674598D01*
X130993053Y-83651796D01*
X130943084Y-83601364D01*
X130928312Y-83531921D01*
X130953428Y-83465516D01*
X130980780Y-83438909D01*
X131024603Y-83407650D01*
X131159860Y-83311173D01*
X131318096Y-83153489D01*
X131377594Y-83070689D01*
X131445435Y-82976277D01*
X131448453Y-82972077D01*
X131547430Y-82771811D01*
X131612370Y-82558069D01*
X131641529Y-82336590D01*
X131643156Y-82270000D01*
X131624852Y-82047361D01*
X131570431Y-81830702D01*
X131481354Y-81625840D01*
X131360014Y-81438277D01*
X131356540Y-81434459D01*
X131356533Y-81434450D01*
X131212435Y-81276088D01*
X131181383Y-81212242D01*
X131189779Y-81141744D01*
X131234956Y-81086976D01*
X131261400Y-81073307D01*
X131368052Y-81033325D01*
X131383649Y-81024786D01*
X131485724Y-80948285D01*
X131498285Y-80935724D01*
X131574786Y-80833649D01*
X131583324Y-80818054D01*
X131628478Y-80697606D01*
X131632105Y-80682351D01*
X131637631Y-80631486D01*
X131638000Y-80624672D01*
X131638000Y-80002115D01*
X131633525Y-79986876D01*
X131632135Y-79985671D01*
X131624452Y-79984000D01*
X128940116Y-79984000D01*
X128924877Y-79988475D01*
X128923672Y-79989865D01*
X128922001Y-79997548D01*
X128922001Y-80624669D01*
X128922371Y-80631490D01*
X128927895Y-80682352D01*
X128931521Y-80697604D01*
X128976676Y-80818054D01*
X128985214Y-80833649D01*
X129061715Y-80935724D01*
X129074276Y-80948285D01*
X129176351Y-81024786D01*
X129191946Y-81033324D01*
X129300827Y-81074142D01*
X129357591Y-81116784D01*
X129382291Y-81183345D01*
X129367083Y-81252694D01*
X129347691Y-81279175D01*
X129224200Y-81408401D01*
X129220629Y-81412138D01*
X129094743Y-81596680D01*
X129000688Y-81799305D01*
X128940989Y-82014570D01*
X128917251Y-82236695D01*
X128917548Y-82241848D01*
X128917548Y-82241851D01*
X128923011Y-82336590D01*
X128930110Y-82459715D01*
X128931247Y-82464761D01*
X128931248Y-82464767D01*
X128951119Y-82552939D01*
X128979222Y-82677639D01*
X129063266Y-82884616D01*
X129179987Y-83075088D01*
X129326250Y-83243938D01*
X129498126Y-83386632D01*
X129568595Y-83427811D01*
X129571445Y-83429476D01*
X129620169Y-83481114D01*
X129633240Y-83550897D01*
X129606509Y-83616669D01*
X129566055Y-83650027D01*
X129553607Y-83656507D01*
X129549474Y-83659610D01*
X129549471Y-83659612D01*
X129525247Y-83677800D01*
X129374965Y-83790635D01*
X129220629Y-83952138D01*
X129094743Y-84136680D01*
X129079003Y-84170590D01*
X129029842Y-84276498D01*
X128983017Y-84329864D01*
X128914774Y-84349445D01*
X128846779Y-84329021D01*
X128826459Y-84312542D01*
X123971802Y-79457885D01*
X128922000Y-79457885D01*
X128926475Y-79473124D01*
X128927865Y-79474329D01*
X128935548Y-79476000D01*
X130007885Y-79476000D01*
X130023124Y-79471525D01*
X130024329Y-79470135D01*
X130026000Y-79462452D01*
X130026000Y-79457885D01*
X130534000Y-79457885D01*
X130538475Y-79473124D01*
X130539865Y-79474329D01*
X130547548Y-79476000D01*
X131619884Y-79476000D01*
X131635123Y-79471525D01*
X131636328Y-79470135D01*
X131637999Y-79462452D01*
X131637999Y-78835331D01*
X131637629Y-78828510D01*
X131632105Y-78777648D01*
X131628479Y-78762396D01*
X131583324Y-78641946D01*
X131574786Y-78626351D01*
X131498285Y-78524276D01*
X131485724Y-78511715D01*
X131383649Y-78435214D01*
X131368054Y-78426676D01*
X131247606Y-78381522D01*
X131232351Y-78377895D01*
X131181486Y-78372369D01*
X131174672Y-78372000D01*
X130552115Y-78372000D01*
X130536876Y-78376475D01*
X130535671Y-78377865D01*
X130534000Y-78385548D01*
X130534000Y-79457885D01*
X130026000Y-79457885D01*
X130026000Y-78390116D01*
X130021525Y-78374877D01*
X130020135Y-78373672D01*
X130012452Y-78372001D01*
X129385331Y-78372001D01*
X129378510Y-78372371D01*
X129327648Y-78377895D01*
X129312396Y-78381521D01*
X129191946Y-78426676D01*
X129176351Y-78435214D01*
X129074276Y-78511715D01*
X129061715Y-78524276D01*
X128985214Y-78626351D01*
X128976676Y-78641946D01*
X128931522Y-78762394D01*
X128927895Y-78777649D01*
X128922369Y-78828514D01*
X128922000Y-78835328D01*
X128922000Y-79457885D01*
X123971802Y-79457885D01*
X123170405Y-78656488D01*
X123136379Y-78594176D01*
X123133500Y-78567393D01*
X123133500Y-72004197D01*
X123153502Y-71936076D01*
X123207158Y-71889583D01*
X123219623Y-71884674D01*
X123267002Y-71868867D01*
X123267004Y-71868866D01*
X123273946Y-71866550D01*
X123424348Y-71773478D01*
X123549305Y-71648303D01*
X123584339Y-71591468D01*
X123638275Y-71503968D01*
X123638276Y-71503966D01*
X123642115Y-71497738D01*
X123697797Y-71329861D01*
X123699865Y-71309683D01*
X123708172Y-71228598D01*
X123708500Y-71225400D01*
X123708500Y-70599600D01*
X123707450Y-70589478D01*
X123698238Y-70500692D01*
X123698237Y-70500688D01*
X123697526Y-70493834D01*
X123673061Y-70420502D01*
X123643868Y-70333002D01*
X123641550Y-70326054D01*
X123548478Y-70175652D01*
X123461891Y-70089216D01*
X123427812Y-70026934D01*
X123432815Y-69956114D01*
X123461736Y-69911025D01*
X123544134Y-69828483D01*
X123549305Y-69823303D01*
X123584339Y-69766468D01*
X123638275Y-69678968D01*
X123638276Y-69678966D01*
X123642115Y-69672738D01*
X123697797Y-69504861D01*
X123699865Y-69484683D01*
X123708172Y-69403598D01*
X123708500Y-69400400D01*
X123708500Y-68774600D01*
X123706063Y-68751111D01*
X123698238Y-68675692D01*
X123698237Y-68675688D01*
X123697526Y-68668834D01*
X123693852Y-68657820D01*
X123643868Y-68508002D01*
X123641550Y-68501054D01*
X123548478Y-68350652D01*
X123423303Y-68225695D01*
X123323641Y-68164262D01*
X123278968Y-68136725D01*
X123278966Y-68136724D01*
X123272738Y-68132885D01*
X123133500Y-68086702D01*
X123111389Y-68079368D01*
X123111387Y-68079368D01*
X123104861Y-68077203D01*
X123098025Y-68076503D01*
X123098022Y-68076502D01*
X123054969Y-68072091D01*
X123000400Y-68066500D01*
X122427095Y-68066500D01*
X122358974Y-68046498D01*
X122337999Y-68029595D01*
X121580404Y-67271999D01*
X121546379Y-67209687D01*
X121543500Y-67182904D01*
X121543500Y-65755037D01*
X121563502Y-65686916D01*
X121590548Y-65656841D01*
X121638818Y-65618030D01*
X121638820Y-65618029D01*
X121643631Y-65614160D01*
X121775172Y-65457396D01*
X121873758Y-65278067D01*
X121878090Y-65264413D01*
X121915265Y-65147223D01*
X121935636Y-65083006D01*
X121953500Y-64923744D01*
X121953500Y-64083505D01*
X121938580Y-63931336D01*
X121879432Y-63735429D01*
X121783359Y-63554742D01*
X121779469Y-63549972D01*
X121779466Y-63549968D01*
X121657915Y-63400932D01*
X121657912Y-63400929D01*
X121654020Y-63396157D01*
X121639468Y-63384118D01*
X121575181Y-63330935D01*
X121496341Y-63265713D01*
X121316329Y-63168381D01*
X121120840Y-63107867D01*
X121114718Y-63107224D01*
X121114715Y-63107223D01*
X120923449Y-63087121D01*
X120923447Y-63087121D01*
X120917320Y-63086477D01*
X120858072Y-63091869D01*
X120719661Y-63104465D01*
X120719658Y-63104466D01*
X120713522Y-63105024D01*
X120707616Y-63106762D01*
X120707612Y-63106763D01*
X120639186Y-63126902D01*
X120517207Y-63162802D01*
X120511749Y-63165655D01*
X120511745Y-63165657D01*
X120335853Y-63257612D01*
X120335120Y-63256211D01*
X120274558Y-63274543D01*
X120213580Y-63259382D01*
X120051560Y-63171777D01*
X120040245Y-63167021D01*
X119911308Y-63127108D01*
X119897205Y-63126902D01*
X119894000Y-63133657D01*
X119894000Y-63867112D01*
X119888101Y-63905213D01*
X119886226Y-63911122D01*
X119886225Y-63911129D01*
X119884364Y-63916994D01*
X119866500Y-64076256D01*
X119866500Y-64916495D01*
X119881420Y-65068664D01*
X119883202Y-65074566D01*
X119888622Y-65092518D01*
X119894000Y-65128936D01*
X119894000Y-65859411D01*
X119897973Y-65872942D01*
X119905768Y-65874062D01*
X120026686Y-65838474D01*
X120038070Y-65833875D01*
X120092125Y-65805616D01*
X120161761Y-65791782D01*
X120227821Y-65817792D01*
X120269333Y-65875388D01*
X120276500Y-65917278D01*
X120276500Y-67418733D01*
X120275973Y-67429916D01*
X120274298Y-67437409D01*
X120274547Y-67445335D01*
X120274547Y-67445336D01*
X120276438Y-67505486D01*
X120276500Y-67509445D01*
X120276500Y-67537356D01*
X120276997Y-67541290D01*
X120276997Y-67541291D01*
X120277005Y-67541356D01*
X120277938Y-67553193D01*
X120279327Y-67597389D01*
X120281805Y-67605917D01*
X120284978Y-67616839D01*
X120288987Y-67636200D01*
X120291526Y-67656297D01*
X120294445Y-67663668D01*
X120294445Y-67663670D01*
X120307804Y-67697412D01*
X120311649Y-67708642D01*
X120323982Y-67751093D01*
X120328015Y-67757912D01*
X120328017Y-67757917D01*
X120334293Y-67768528D01*
X120342988Y-67786276D01*
X120350448Y-67805117D01*
X120355110Y-67811533D01*
X120355110Y-67811534D01*
X120376436Y-67840887D01*
X120382952Y-67850807D01*
X120400864Y-67881094D01*
X120405458Y-67888862D01*
X120419779Y-67903183D01*
X120432619Y-67918216D01*
X120444528Y-67934607D01*
X120463523Y-67950321D01*
X120478605Y-67962798D01*
X120487384Y-67970788D01*
X121254595Y-68737999D01*
X121288621Y-68800311D01*
X121291500Y-68827094D01*
X121291500Y-69400400D01*
X121291837Y-69403646D01*
X121291837Y-69403650D01*
X121300911Y-69491098D01*
X121302474Y-69506166D01*
X121358450Y-69673946D01*
X121451522Y-69824348D01*
X121456704Y-69829521D01*
X121538109Y-69910784D01*
X121572188Y-69973066D01*
X121567185Y-70043886D01*
X121538264Y-70088975D01*
X121495927Y-70131386D01*
X121450695Y-70176697D01*
X121357885Y-70327262D01*
X121355581Y-70334209D01*
X121326559Y-70421709D01*
X121302203Y-70495139D01*
X121291500Y-70599600D01*
X121291500Y-71225400D01*
X121291837Y-71228646D01*
X121291837Y-71228650D01*
X121300911Y-71316098D01*
X121302474Y-71331166D01*
X121358450Y-71498946D01*
X121451522Y-71649348D01*
X121576697Y-71774305D01*
X121582927Y-71778145D01*
X121582928Y-71778146D01*
X121718648Y-71861805D01*
X121727262Y-71867115D01*
X121780168Y-71884663D01*
X121838527Y-71925094D01*
X121865764Y-71990658D01*
X121866500Y-72004256D01*
X121866500Y-78803221D01*
X121865973Y-78814404D01*
X121864298Y-78821897D01*
X121864547Y-78829823D01*
X121864547Y-78829824D01*
X121866438Y-78889974D01*
X121866500Y-78893933D01*
X121866500Y-78921844D01*
X121866997Y-78925778D01*
X121866997Y-78925779D01*
X121867005Y-78925844D01*
X121867938Y-78937681D01*
X121869327Y-78981877D01*
X121874978Y-79001327D01*
X121878987Y-79020688D01*
X121881526Y-79040785D01*
X121884445Y-79048156D01*
X121884445Y-79048158D01*
X121897804Y-79081900D01*
X121901649Y-79093130D01*
X121913982Y-79135581D01*
X121918015Y-79142400D01*
X121918017Y-79142405D01*
X121924293Y-79153016D01*
X121932988Y-79170764D01*
X121940448Y-79189605D01*
X121945110Y-79196021D01*
X121945110Y-79196022D01*
X121966436Y-79225375D01*
X121972952Y-79235295D01*
X121995458Y-79273350D01*
X122009779Y-79287671D01*
X122022619Y-79302704D01*
X122034528Y-79319095D01*
X122040634Y-79324146D01*
X122068605Y-79347286D01*
X122077384Y-79355276D01*
X129144203Y-86422096D01*
X129178229Y-86484408D01*
X129173164Y-86555223D01*
X129159200Y-86582190D01*
X129094743Y-86676680D01*
X129079003Y-86710590D01*
X129029842Y-86816498D01*
X128983017Y-86869864D01*
X128914774Y-86889445D01*
X128846779Y-86869021D01*
X128826459Y-86852542D01*
X119670405Y-77696488D01*
X119636379Y-77634176D01*
X119633500Y-77607393D01*
X119633500Y-72004197D01*
X119653502Y-71936076D01*
X119707158Y-71889583D01*
X119719623Y-71884674D01*
X119767002Y-71868867D01*
X119767004Y-71868866D01*
X119773946Y-71866550D01*
X119924348Y-71773478D01*
X120049305Y-71648303D01*
X120084339Y-71591468D01*
X120138275Y-71503968D01*
X120138276Y-71503966D01*
X120142115Y-71497738D01*
X120197797Y-71329861D01*
X120199865Y-71309683D01*
X120208172Y-71228598D01*
X120208500Y-71225400D01*
X120208500Y-70599600D01*
X120207450Y-70589478D01*
X120198238Y-70500692D01*
X120198237Y-70500688D01*
X120197526Y-70493834D01*
X120173061Y-70420502D01*
X120143868Y-70333002D01*
X120141550Y-70326054D01*
X120048478Y-70175652D01*
X119961891Y-70089216D01*
X119927812Y-70026934D01*
X119932815Y-69956114D01*
X119961736Y-69911025D01*
X120044134Y-69828483D01*
X120049305Y-69823303D01*
X120084339Y-69766468D01*
X120138275Y-69678968D01*
X120138276Y-69678966D01*
X120142115Y-69672738D01*
X120197797Y-69504861D01*
X120199865Y-69484683D01*
X120208172Y-69403598D01*
X120208500Y-69400400D01*
X120208500Y-68774600D01*
X120206063Y-68751111D01*
X120198238Y-68675692D01*
X120198237Y-68675688D01*
X120197526Y-68668834D01*
X120193852Y-68657820D01*
X120143868Y-68508002D01*
X120141550Y-68501054D01*
X120048478Y-68350652D01*
X119923303Y-68225695D01*
X119823641Y-68164262D01*
X119778968Y-68136725D01*
X119778966Y-68136724D01*
X119772738Y-68132885D01*
X119633500Y-68086702D01*
X119611389Y-68079368D01*
X119611387Y-68079368D01*
X119604861Y-68077203D01*
X119598025Y-68076503D01*
X119598022Y-68076502D01*
X119554969Y-68072091D01*
X119500400Y-68066500D01*
X119129500Y-68066500D01*
X119061379Y-68046498D01*
X119014886Y-67992842D01*
X119003500Y-67940500D01*
X119003500Y-65917964D01*
X119023502Y-65849843D01*
X119077158Y-65803350D01*
X119147432Y-65793246D01*
X119189430Y-65807129D01*
X119228445Y-65828225D01*
X119239755Y-65832979D01*
X119368692Y-65872892D01*
X119382795Y-65873098D01*
X119386000Y-65866343D01*
X119386000Y-65132888D01*
X119391899Y-65094787D01*
X119393774Y-65088878D01*
X119393775Y-65088871D01*
X119395636Y-65083006D01*
X119413500Y-64923744D01*
X119413500Y-64083505D01*
X119398580Y-63931336D01*
X119391378Y-63907482D01*
X119386000Y-63871064D01*
X119386000Y-63140589D01*
X119382027Y-63127058D01*
X119374232Y-63125938D01*
X119253314Y-63161526D01*
X119241930Y-63166125D01*
X119066128Y-63258032D01*
X119065284Y-63256417D01*
X119005540Y-63274503D01*
X118944561Y-63259343D01*
X118776329Y-63168381D01*
X118580840Y-63107867D01*
X118574718Y-63107224D01*
X118574715Y-63107223D01*
X118383449Y-63087121D01*
X118383447Y-63087121D01*
X118377320Y-63086477D01*
X118318072Y-63091869D01*
X118179661Y-63104465D01*
X118179658Y-63104466D01*
X118173522Y-63105024D01*
X118167616Y-63106762D01*
X118167612Y-63106763D01*
X118098486Y-63127108D01*
X117979500Y-63162127D01*
X117908504Y-63162172D01*
X117886716Y-63153140D01*
X117881705Y-63149385D01*
X117873304Y-63146236D01*
X117873301Y-63146234D01*
X117761881Y-63104465D01*
X117745316Y-63098255D01*
X117683134Y-63091500D01*
X116516866Y-63091500D01*
X116454684Y-63098255D01*
X116318295Y-63149385D01*
X116201739Y-63236739D01*
X116114385Y-63353295D01*
X116063255Y-63489684D01*
X116056500Y-63551866D01*
X116056500Y-65448134D01*
X116063255Y-65510316D01*
X116114385Y-65646705D01*
X116201739Y-65763261D01*
X116318295Y-65850615D01*
X116326704Y-65853767D01*
X116326705Y-65853768D01*
X116384729Y-65875520D01*
X116441494Y-65918161D01*
X116466194Y-65984722D01*
X116466500Y-65993502D01*
X116466500Y-67260405D01*
X116446498Y-67328526D01*
X116429595Y-67349501D01*
X115661999Y-68117096D01*
X115599687Y-68151121D01*
X115572904Y-68154000D01*
X114999600Y-68154000D01*
X114996354Y-68154337D01*
X114996350Y-68154337D01*
X114900692Y-68164262D01*
X114900688Y-68164263D01*
X114893834Y-68164974D01*
X114887298Y-68167155D01*
X114887296Y-68167155D01*
X114815666Y-68191053D01*
X114726054Y-68220950D01*
X114575652Y-68314022D01*
X114450695Y-68439197D01*
X114446855Y-68445427D01*
X114446854Y-68445428D01*
X114390189Y-68537356D01*
X114357885Y-68589762D01*
X114335816Y-68656297D01*
X114317642Y-68711093D01*
X114302203Y-68757639D01*
X114301503Y-68764475D01*
X114301502Y-68764478D01*
X114300130Y-68777867D01*
X114291500Y-68862100D01*
X114291500Y-69487900D01*
X114291837Y-69491146D01*
X114291837Y-69491150D01*
X114294074Y-69512704D01*
X114302474Y-69593666D01*
X114304655Y-69600202D01*
X114304655Y-69600204D01*
X114330933Y-69678968D01*
X114358450Y-69761446D01*
X114451522Y-69911848D01*
X114456704Y-69917021D01*
X114538109Y-69998284D01*
X114572188Y-70060566D01*
X114567185Y-70131386D01*
X114538264Y-70176475D01*
X114531822Y-70182928D01*
X114450695Y-70264197D01*
X114446855Y-70270427D01*
X114446854Y-70270428D01*
X114412566Y-70326054D01*
X114357885Y-70414762D01*
X114302203Y-70582639D01*
X114301503Y-70589475D01*
X114301502Y-70589478D01*
X114297091Y-70632531D01*
X114291500Y-70687100D01*
X114291500Y-71312900D01*
X114291837Y-71316146D01*
X114291837Y-71316150D01*
X114294074Y-71337704D01*
X114302474Y-71418666D01*
X114304655Y-71425202D01*
X114304655Y-71425204D01*
X114330933Y-71503968D01*
X114358450Y-71586446D01*
X114451522Y-71736848D01*
X114576697Y-71861805D01*
X114582927Y-71865645D01*
X114582928Y-71865646D01*
X114672132Y-71920632D01*
X114727262Y-71954615D01*
X114774868Y-71970405D01*
X114780168Y-71972163D01*
X114838527Y-72012594D01*
X114865764Y-72078158D01*
X114866500Y-72091756D01*
X114866500Y-75816405D01*
X114846498Y-75884526D01*
X114792842Y-75931019D01*
X114722568Y-75941123D01*
X114657988Y-75911629D01*
X114651405Y-75905500D01*
X112606523Y-73860618D01*
X112572497Y-73798306D01*
X112577562Y-73727491D01*
X112610047Y-73679742D01*
X112611253Y-73678866D01*
X112739040Y-73536944D01*
X112834527Y-73371556D01*
X112893542Y-73189928D01*
X112913504Y-73000000D01*
X112899078Y-72862740D01*
X112894232Y-72816635D01*
X112894232Y-72816633D01*
X112893542Y-72810072D01*
X112834527Y-72628444D01*
X112739040Y-72463056D01*
X112665863Y-72381785D01*
X112635147Y-72317779D01*
X112633500Y-72297476D01*
X112633500Y-72004197D01*
X112653502Y-71936076D01*
X112707158Y-71889583D01*
X112719623Y-71884674D01*
X112767002Y-71868867D01*
X112767004Y-71868866D01*
X112773946Y-71866550D01*
X112924348Y-71773478D01*
X113049305Y-71648303D01*
X113084339Y-71591468D01*
X113138275Y-71503968D01*
X113138276Y-71503966D01*
X113142115Y-71497738D01*
X113197797Y-71329861D01*
X113199865Y-71309683D01*
X113208172Y-71228598D01*
X113208500Y-71225400D01*
X113208500Y-70599600D01*
X113207450Y-70589478D01*
X113198238Y-70500692D01*
X113198237Y-70500688D01*
X113197526Y-70493834D01*
X113173061Y-70420502D01*
X113143868Y-70333002D01*
X113141550Y-70326054D01*
X113048478Y-70175652D01*
X112961891Y-70089216D01*
X112927812Y-70026934D01*
X112932815Y-69956114D01*
X112961736Y-69911025D01*
X113044134Y-69828483D01*
X113049305Y-69823303D01*
X113084339Y-69766468D01*
X113138275Y-69678968D01*
X113138276Y-69678966D01*
X113142115Y-69672738D01*
X113197797Y-69504861D01*
X113199865Y-69484683D01*
X113208172Y-69403598D01*
X113208500Y-69400400D01*
X113208500Y-68774600D01*
X113206063Y-68751111D01*
X113198238Y-68675692D01*
X113198237Y-68675688D01*
X113197526Y-68668834D01*
X113193852Y-68657820D01*
X113143868Y-68508002D01*
X113141550Y-68501054D01*
X113048478Y-68350652D01*
X112923303Y-68225695D01*
X112823641Y-68164262D01*
X112778968Y-68136725D01*
X112778966Y-68136724D01*
X112772738Y-68132885D01*
X112633500Y-68086702D01*
X112611389Y-68079368D01*
X112611387Y-68079368D01*
X112604861Y-68077203D01*
X112598025Y-68076503D01*
X112598022Y-68076502D01*
X112554969Y-68072091D01*
X112500400Y-68066500D01*
X112169500Y-68066500D01*
X112101379Y-68046498D01*
X112054886Y-67992842D01*
X112043500Y-67940500D01*
X112043500Y-65755037D01*
X112063502Y-65686916D01*
X112090548Y-65656841D01*
X112138818Y-65618030D01*
X112138820Y-65618029D01*
X112143631Y-65614160D01*
X112275172Y-65457396D01*
X112373758Y-65278067D01*
X112378090Y-65264413D01*
X112415265Y-65147223D01*
X112435636Y-65083006D01*
X112453500Y-64923744D01*
X112453500Y-64083505D01*
X112438580Y-63931336D01*
X112379432Y-63735429D01*
X112283359Y-63554742D01*
X112279469Y-63549972D01*
X112279466Y-63549968D01*
X112157915Y-63400932D01*
X112157912Y-63400929D01*
X112154020Y-63396157D01*
X112139468Y-63384118D01*
X112075181Y-63330935D01*
X111996341Y-63265713D01*
X111816329Y-63168381D01*
X111620840Y-63107867D01*
X111614718Y-63107224D01*
X111614715Y-63107223D01*
X111423449Y-63087121D01*
X111423447Y-63087121D01*
X111417320Y-63086477D01*
X111358072Y-63091869D01*
X111219661Y-63104465D01*
X111219658Y-63104466D01*
X111213522Y-63105024D01*
X111207616Y-63106762D01*
X111207612Y-63106763D01*
X111139186Y-63126902D01*
X111017207Y-63162802D01*
X111011749Y-63165655D01*
X111011745Y-63165657D01*
X110835853Y-63257612D01*
X110835120Y-63256211D01*
X110774558Y-63274543D01*
X110713580Y-63259382D01*
X110551560Y-63171777D01*
X110540245Y-63167021D01*
X110411308Y-63127108D01*
X110397205Y-63126902D01*
X110394000Y-63133657D01*
X110394000Y-63867112D01*
X110388101Y-63905213D01*
X110386226Y-63911122D01*
X110386225Y-63911129D01*
X110384364Y-63916994D01*
X110366500Y-64076256D01*
X110366500Y-64916495D01*
X110381420Y-65068664D01*
X110383202Y-65074566D01*
X110388622Y-65092518D01*
X110394000Y-65128936D01*
X110394000Y-65859411D01*
X110397973Y-65872942D01*
X110405768Y-65874062D01*
X110526686Y-65838474D01*
X110538070Y-65833875D01*
X110592125Y-65805616D01*
X110661761Y-65791782D01*
X110727821Y-65817792D01*
X110769333Y-65875388D01*
X110776500Y-65917278D01*
X110776500Y-68418733D01*
X110775973Y-68429916D01*
X110774298Y-68437409D01*
X110774547Y-68445335D01*
X110774547Y-68445336D01*
X110776438Y-68505486D01*
X110776500Y-68509445D01*
X110776500Y-68537356D01*
X110776997Y-68541290D01*
X110776997Y-68541291D01*
X110777005Y-68541356D01*
X110777938Y-68553193D01*
X110779327Y-68597389D01*
X110784978Y-68616839D01*
X110788987Y-68636200D01*
X110791526Y-68656297D01*
X110794446Y-68663673D01*
X110794868Y-68665315D01*
X110798171Y-68709494D01*
X110791500Y-68774600D01*
X110791500Y-69400400D01*
X110791837Y-69403646D01*
X110791837Y-69403650D01*
X110800911Y-69491098D01*
X110802474Y-69506166D01*
X110858450Y-69673946D01*
X110951522Y-69824348D01*
X110956704Y-69829521D01*
X111038109Y-69910784D01*
X111072188Y-69973066D01*
X111067185Y-70043886D01*
X111038264Y-70088975D01*
X110995927Y-70131386D01*
X110950695Y-70176697D01*
X110857885Y-70327262D01*
X110855581Y-70334209D01*
X110826559Y-70421709D01*
X110802203Y-70495139D01*
X110791500Y-70599600D01*
X110791500Y-71225400D01*
X110791837Y-71228646D01*
X110791837Y-71228650D01*
X110800911Y-71316098D01*
X110802474Y-71331166D01*
X110858450Y-71498946D01*
X110951522Y-71649348D01*
X111076697Y-71774305D01*
X111082927Y-71778145D01*
X111082928Y-71778146D01*
X111218648Y-71861805D01*
X111227262Y-71867115D01*
X111280168Y-71884663D01*
X111338527Y-71925094D01*
X111365764Y-71990658D01*
X111366500Y-72004256D01*
X111366500Y-72297476D01*
X111346498Y-72365597D01*
X111334141Y-72381781D01*
X111325162Y-72391753D01*
X111264715Y-72428988D01*
X111193731Y-72427632D01*
X111142436Y-72396531D01*
X109745405Y-70999500D01*
X109711379Y-70937188D01*
X109708500Y-70910405D01*
X109708500Y-70599600D01*
X109707450Y-70589478D01*
X109698238Y-70500692D01*
X109698237Y-70500688D01*
X109697526Y-70493834D01*
X109673061Y-70420502D01*
X109643868Y-70333002D01*
X109641550Y-70326054D01*
X109548478Y-70175652D01*
X109461891Y-70089216D01*
X109427812Y-70026934D01*
X109432815Y-69956114D01*
X109461736Y-69911025D01*
X109544134Y-69828483D01*
X109549305Y-69823303D01*
X109584339Y-69766468D01*
X109638275Y-69678968D01*
X109638276Y-69678966D01*
X109642115Y-69672738D01*
X109697797Y-69504861D01*
X109699865Y-69484683D01*
X109708172Y-69403598D01*
X109708500Y-69400400D01*
X109708500Y-68774600D01*
X109706063Y-68751111D01*
X109698238Y-68675692D01*
X109698237Y-68675688D01*
X109697526Y-68668834D01*
X109693852Y-68657820D01*
X109643868Y-68508002D01*
X109641550Y-68501054D01*
X109548478Y-68350652D01*
X109543296Y-68345479D01*
X109543292Y-68345474D01*
X109540483Y-68342670D01*
X109539175Y-68340279D01*
X109538749Y-68339742D01*
X109538841Y-68339669D01*
X109506403Y-68280388D01*
X109503500Y-68253497D01*
X109503500Y-65917964D01*
X109523502Y-65849843D01*
X109577158Y-65803350D01*
X109647432Y-65793246D01*
X109689430Y-65807129D01*
X109728445Y-65828225D01*
X109739755Y-65832979D01*
X109868692Y-65872892D01*
X109882795Y-65873098D01*
X109886000Y-65866343D01*
X109886000Y-65132888D01*
X109891899Y-65094787D01*
X109893774Y-65088878D01*
X109893775Y-65088871D01*
X109895636Y-65083006D01*
X109913500Y-64923744D01*
X109913500Y-64083505D01*
X109898580Y-63931336D01*
X109891378Y-63907482D01*
X109886000Y-63871064D01*
X109886000Y-63140589D01*
X109882027Y-63127058D01*
X109874232Y-63125938D01*
X109753314Y-63161526D01*
X109741930Y-63166125D01*
X109566128Y-63258032D01*
X109565284Y-63256417D01*
X109505540Y-63274503D01*
X109444561Y-63259343D01*
X109276329Y-63168381D01*
X109080840Y-63107867D01*
X109074718Y-63107224D01*
X109074715Y-63107223D01*
X108883449Y-63087121D01*
X108883447Y-63087121D01*
X108877320Y-63086477D01*
X108818072Y-63091869D01*
X108679661Y-63104465D01*
X108679658Y-63104466D01*
X108673522Y-63105024D01*
X108667616Y-63106762D01*
X108667612Y-63106763D01*
X108598486Y-63127108D01*
X108479500Y-63162127D01*
X108408504Y-63162172D01*
X108386716Y-63153140D01*
X108381705Y-63149385D01*
X108373304Y-63146236D01*
X108373301Y-63146234D01*
X108261881Y-63104465D01*
X108245316Y-63098255D01*
X108183134Y-63091500D01*
X107016866Y-63091500D01*
X106954684Y-63098255D01*
X106818295Y-63149385D01*
X106701739Y-63236739D01*
X106614385Y-63353295D01*
X106563255Y-63489684D01*
X106556500Y-63551866D01*
X106556500Y-65448134D01*
X106563255Y-65510316D01*
X106614385Y-65646705D01*
X106701739Y-65763261D01*
X106818295Y-65850615D01*
X106826704Y-65853767D01*
X106826705Y-65853768D01*
X106884729Y-65875520D01*
X106941494Y-65918161D01*
X106966194Y-65984722D01*
X106966500Y-65993502D01*
X106966500Y-66172905D01*
X106946498Y-66241026D01*
X106929595Y-66262000D01*
X105162000Y-68029595D01*
X105099688Y-68063621D01*
X105072905Y-68066500D01*
X104499600Y-68066500D01*
X104496354Y-68066837D01*
X104496350Y-68066837D01*
X104400692Y-68076762D01*
X104400688Y-68076763D01*
X104393834Y-68077474D01*
X104387298Y-68079655D01*
X104387296Y-68079655D01*
X104366174Y-68086702D01*
X104226054Y-68133450D01*
X104075652Y-68226522D01*
X103950695Y-68351697D01*
X103946855Y-68357927D01*
X103946854Y-68357928D01*
X103863353Y-68493392D01*
X103857885Y-68502262D01*
X103853532Y-68515386D01*
X103823810Y-68604997D01*
X103802203Y-68670139D01*
X103801503Y-68676975D01*
X103801502Y-68676978D01*
X103799610Y-68695442D01*
X103791500Y-68774600D01*
X103791500Y-69400400D01*
X103791837Y-69403646D01*
X103791837Y-69403650D01*
X103800911Y-69491098D01*
X103802474Y-69506166D01*
X103858450Y-69673946D01*
X103951522Y-69824348D01*
X103956704Y-69829521D01*
X104038109Y-69910784D01*
X104072188Y-69973066D01*
X104067185Y-70043886D01*
X104038264Y-70088975D01*
X103995927Y-70131386D01*
X103950695Y-70176697D01*
X103857885Y-70327262D01*
X103855581Y-70334209D01*
X103826559Y-70421709D01*
X103802203Y-70495139D01*
X103791500Y-70599600D01*
X103791500Y-71225400D01*
X96508500Y-71225400D01*
X96508500Y-65516381D01*
X98849160Y-65516381D01*
X98849237Y-65517470D01*
X98851698Y-65521206D01*
X99125632Y-65731404D01*
X99131262Y-65735259D01*
X99431591Y-65917862D01*
X99437593Y-65921080D01*
X99755897Y-66070184D01*
X99762202Y-66072732D01*
X100094743Y-66186587D01*
X100101313Y-66188446D01*
X100444183Y-66265714D01*
X100450912Y-66266853D01*
X100800143Y-66306643D01*
X100806933Y-66307046D01*
X101158419Y-66308886D01*
X101165220Y-66308554D01*
X101514853Y-66272423D01*
X101521581Y-66271357D01*
X101865274Y-66197676D01*
X101871822Y-66195897D01*
X102205549Y-66085527D01*
X102211891Y-66083041D01*
X102531718Y-65937288D01*
X102537777Y-65934121D01*
X102839995Y-65754676D01*
X102845659Y-65750884D01*
X103126732Y-65539849D01*
X103131958Y-65535464D01*
X103141613Y-65526428D01*
X103149682Y-65512750D01*
X103149654Y-65512024D01*
X103144512Y-65503723D01*
X101012810Y-63372020D01*
X100998869Y-63364408D01*
X100997034Y-63364539D01*
X100990420Y-63368790D01*
X98856774Y-65502437D01*
X98849160Y-65516381D01*
X96508500Y-65516381D01*
X96508500Y-62991832D01*
X97687333Y-62991832D01*
X97705117Y-63342893D01*
X97705827Y-63349649D01*
X97761420Y-63696723D01*
X97762859Y-63703378D01*
X97855608Y-64042410D01*
X97857757Y-64048871D01*
X97986581Y-64375912D01*
X97989412Y-64382095D01*
X98152803Y-64693310D01*
X98156286Y-64699152D01*
X98352330Y-64990896D01*
X98356433Y-64996340D01*
X98476425Y-65138836D01*
X98489164Y-65147279D01*
X98499608Y-65141181D01*
X100627980Y-63012810D01*
X100634357Y-63001131D01*
X101364408Y-63001131D01*
X101364539Y-63002966D01*
X101368790Y-63009580D01*
X103499009Y-65139798D01*
X103512605Y-65147223D01*
X103522218Y-65140522D01*
X103622518Y-65023912D01*
X103626676Y-65018514D01*
X103825762Y-64728840D01*
X103829310Y-64723029D01*
X103995942Y-64413559D01*
X103998849Y-64407381D01*
X104131090Y-64081713D01*
X104133304Y-64075283D01*
X104229598Y-63737237D01*
X104231105Y-63730607D01*
X104290332Y-63384118D01*
X104291112Y-63377378D01*
X104312668Y-63024925D01*
X104312784Y-63021323D01*
X104312853Y-63001819D01*
X104312761Y-62998194D01*
X104312416Y-62991832D01*
X133687333Y-62991832D01*
X133705117Y-63342893D01*
X133705827Y-63349649D01*
X133761420Y-63696723D01*
X133762859Y-63703378D01*
X133855608Y-64042410D01*
X133857757Y-64048871D01*
X133986581Y-64375912D01*
X133989412Y-64382095D01*
X134152803Y-64693310D01*
X134156286Y-64699152D01*
X134352330Y-64990896D01*
X134356433Y-64996340D01*
X134476425Y-65138836D01*
X134489164Y-65147279D01*
X134499608Y-65141181D01*
X136627980Y-63012810D01*
X136634357Y-63001131D01*
X137364408Y-63001131D01*
X137364539Y-63002966D01*
X137368790Y-63009580D01*
X139499009Y-65139798D01*
X139512605Y-65147223D01*
X139522218Y-65140522D01*
X139622518Y-65023912D01*
X139626676Y-65018514D01*
X139825762Y-64728840D01*
X139829310Y-64723029D01*
X139995942Y-64413559D01*
X139998849Y-64407381D01*
X140131090Y-64081713D01*
X140133304Y-64075283D01*
X140229598Y-63737237D01*
X140231105Y-63730607D01*
X140290332Y-63384118D01*
X140291112Y-63377378D01*
X140312668Y-63024925D01*
X140312784Y-63021323D01*
X140312853Y-63001819D01*
X140312761Y-62998194D01*
X140293666Y-62645615D01*
X140292931Y-62638849D01*
X140236130Y-62291985D01*
X140234663Y-62285313D01*
X140140736Y-61946627D01*
X140138562Y-61940163D01*
X140008598Y-61613578D01*
X140005742Y-61607398D01*
X139841269Y-61296763D01*
X139837769Y-61290937D01*
X139640697Y-60999862D01*
X139636590Y-60994453D01*
X139523565Y-60861179D01*
X139510740Y-60852743D01*
X139500416Y-60858795D01*
X137372020Y-62987190D01*
X137364408Y-63001131D01*
X136634357Y-63001131D01*
X136635592Y-62998869D01*
X136635461Y-62997034D01*
X136631210Y-62990420D01*
X134500992Y-60860203D01*
X134487455Y-60852811D01*
X134477753Y-60859599D01*
X134370430Y-60985257D01*
X134366296Y-60990664D01*
X134168215Y-61281041D01*
X134164697Y-61286851D01*
X133999134Y-61596922D01*
X133996259Y-61603087D01*
X133865155Y-61929218D01*
X133862962Y-61935658D01*
X133767846Y-62274044D01*
X133766363Y-62280679D01*
X133708350Y-62627354D01*
X133707591Y-62634126D01*
X133687357Y-62985037D01*
X133687333Y-62991832D01*
X104312416Y-62991832D01*
X104293666Y-62645615D01*
X104292931Y-62638849D01*
X104236130Y-62291985D01*
X104234663Y-62285313D01*
X104140736Y-61946627D01*
X104138562Y-61940163D01*
X104008598Y-61613578D01*
X104005742Y-61607398D01*
X103841269Y-61296763D01*
X103837769Y-61290937D01*
X103640697Y-60999862D01*
X103636590Y-60994453D01*
X103523565Y-60861179D01*
X103510740Y-60852743D01*
X103500416Y-60858795D01*
X101372020Y-62987190D01*
X101364408Y-63001131D01*
X100634357Y-63001131D01*
X100635592Y-62998869D01*
X100635461Y-62997034D01*
X100631210Y-62990420D01*
X98500992Y-60860203D01*
X98487455Y-60852811D01*
X98477753Y-60859599D01*
X98370430Y-60985257D01*
X98366296Y-60990664D01*
X98168215Y-61281041D01*
X98164697Y-61286851D01*
X97999134Y-61596922D01*
X97996259Y-61603087D01*
X97865155Y-61929218D01*
X97862962Y-61935658D01*
X97767846Y-62274044D01*
X97766363Y-62280679D01*
X97708350Y-62627354D01*
X97707591Y-62634126D01*
X97687357Y-62985037D01*
X97687333Y-62991832D01*
X96508500Y-62991832D01*
X96508500Y-60486862D01*
X98849950Y-60486862D01*
X98849986Y-60487704D01*
X98855037Y-60495826D01*
X100987190Y-62627980D01*
X101001131Y-62635592D01*
X101002966Y-62635461D01*
X101009580Y-62631210D01*
X103142798Y-60497991D01*
X103148875Y-60486862D01*
X134849950Y-60486862D01*
X134849986Y-60487704D01*
X134855037Y-60495826D01*
X136987190Y-62627980D01*
X137001131Y-62635592D01*
X137002966Y-62635461D01*
X137009580Y-62631210D01*
X139142798Y-60497991D01*
X139150412Y-60484047D01*
X139150344Y-60483089D01*
X139145836Y-60476272D01*
X139144418Y-60475065D01*
X138864813Y-60262064D01*
X138859187Y-60258240D01*
X138558214Y-60076681D01*
X138552202Y-60073484D01*
X138233370Y-59925487D01*
X138227070Y-59922967D01*
X137894129Y-59810273D01*
X137887551Y-59808437D01*
X137544417Y-59732367D01*
X137537678Y-59731251D01*
X137188310Y-59692680D01*
X137181529Y-59692301D01*
X136830015Y-59691687D01*
X136823242Y-59692042D01*
X136473720Y-59729395D01*
X136467010Y-59730482D01*
X136123586Y-59805361D01*
X136117011Y-59807172D01*
X135783683Y-59918702D01*
X135777361Y-59921205D01*
X135458034Y-60068079D01*
X135451991Y-60071265D01*
X135150401Y-60251763D01*
X135144755Y-60255571D01*
X134864408Y-60467596D01*
X134859211Y-60471987D01*
X134857972Y-60473155D01*
X134849950Y-60486862D01*
X103148875Y-60486862D01*
X103150412Y-60484047D01*
X103150344Y-60483089D01*
X103145836Y-60476272D01*
X103144418Y-60475065D01*
X102864813Y-60262064D01*
X102859187Y-60258240D01*
X102558214Y-60076681D01*
X102552202Y-60073484D01*
X102233370Y-59925487D01*
X102227070Y-59922967D01*
X101894129Y-59810273D01*
X101887551Y-59808437D01*
X101544417Y-59732367D01*
X101537678Y-59731251D01*
X101188310Y-59692680D01*
X101181529Y-59692301D01*
X100830015Y-59691687D01*
X100823242Y-59692042D01*
X100473720Y-59729395D01*
X100467010Y-59730482D01*
X100123586Y-59805361D01*
X100117011Y-59807172D01*
X99783683Y-59918702D01*
X99777361Y-59921205D01*
X99458034Y-60068079D01*
X99451991Y-60071265D01*
X99150401Y-60251763D01*
X99144755Y-60255571D01*
X98864408Y-60467596D01*
X98859211Y-60471987D01*
X98857972Y-60473155D01*
X98849950Y-60486862D01*
X96508500Y-60486862D01*
X96508500Y-58634500D01*
X96528502Y-58566379D01*
X96582158Y-58519886D01*
X96634500Y-58508500D01*
X141365500Y-58508500D01*
X141433621Y-58528502D01*
G37*
%TD.AperFunction*%
%TD*%
M02*
