%TF.GenerationSoftware,KiCad,Pcbnew,(6.0.5)*%
%TF.CreationDate,2022-06-12T23:48:21-07:00*%
%TF.ProjectId,garbage-day-indicator,67617262-6167-4652-9d64-61792d696e64,0*%
%TF.SameCoordinates,Original*%
%TF.FileFunction,Legend,Top*%
%TF.FilePolarity,Positive*%
%FSLAX46Y46*%
G04 Gerber Fmt 4.6, Leading zero omitted, Abs format (unit mm)*
G04 Created by KiCad (PCBNEW (6.0.5)) date 2022-06-12 23:48:21*
%MOMM*%
%LPD*%
G01*
G04 APERTURE LIST*
%ADD10C,0.150000*%
%ADD11C,0.120000*%
G04 APERTURE END LIST*
D10*
%TO.C,He1*%
X135809523Y-59652380D02*
X135809523Y-58652380D01*
X135809523Y-59128571D02*
X136380952Y-59128571D01*
X136380952Y-59652380D02*
X136380952Y-58652380D01*
X137238095Y-59604761D02*
X137142857Y-59652380D01*
X136952380Y-59652380D01*
X136857142Y-59604761D01*
X136809523Y-59509523D01*
X136809523Y-59128571D01*
X136857142Y-59033333D01*
X136952380Y-58985714D01*
X137142857Y-58985714D01*
X137238095Y-59033333D01*
X137285714Y-59128571D01*
X137285714Y-59223809D01*
X136809523Y-59319047D01*
X138238095Y-59652380D02*
X137666666Y-59652380D01*
X137952380Y-59652380D02*
X137952380Y-58652380D01*
X137857142Y-58795238D01*
X137761904Y-58890476D01*
X137666666Y-58938095D01*
%TO.C,H4*%
X136238095Y-112652380D02*
X136238095Y-111652380D01*
X136238095Y-112128571D02*
X136809523Y-112128571D01*
X136809523Y-112652380D02*
X136809523Y-111652380D01*
X137714285Y-111985714D02*
X137714285Y-112652380D01*
X137476190Y-111604761D02*
X137238095Y-112319047D01*
X137857142Y-112319047D01*
%TO.C,H3*%
X100238095Y-112652380D02*
X100238095Y-111652380D01*
X100238095Y-112128571D02*
X100809523Y-112128571D01*
X100809523Y-112652380D02*
X100809523Y-111652380D01*
X101190476Y-111652380D02*
X101809523Y-111652380D01*
X101476190Y-112033333D01*
X101619047Y-112033333D01*
X101714285Y-112080952D01*
X101761904Y-112128571D01*
X101809523Y-112223809D01*
X101809523Y-112461904D01*
X101761904Y-112557142D01*
X101714285Y-112604761D01*
X101619047Y-112652380D01*
X101333333Y-112652380D01*
X101238095Y-112604761D01*
X101190476Y-112557142D01*
%TO.C,H1*%
X100238095Y-59652380D02*
X100238095Y-58652380D01*
X100238095Y-59128571D02*
X100809523Y-59128571D01*
X100809523Y-59652380D02*
X100809523Y-58652380D01*
X101809523Y-59652380D02*
X101238095Y-59652380D01*
X101523809Y-59652380D02*
X101523809Y-58652380D01*
X101428571Y-58795238D01*
X101333333Y-58890476D01*
X101238095Y-58938095D01*
%TO.C,R1*%
X103802380Y-70166666D02*
X103326190Y-70500000D01*
X103802380Y-70738095D02*
X102802380Y-70738095D01*
X102802380Y-70357142D01*
X102850000Y-70261904D01*
X102897619Y-70214285D01*
X102992857Y-70166666D01*
X103135714Y-70166666D01*
X103230952Y-70214285D01*
X103278571Y-70261904D01*
X103326190Y-70357142D01*
X103326190Y-70738095D01*
X103802380Y-69214285D02*
X103802380Y-69785714D01*
X103802380Y-69500000D02*
X102802380Y-69500000D01*
X102945238Y-69595238D01*
X103040476Y-69690476D01*
X103088095Y-69785714D01*
%TO.C,J1*%
X107086666Y-76412380D02*
X107086666Y-77126666D01*
X107039047Y-77269523D01*
X106943809Y-77364761D01*
X106800952Y-77412380D01*
X106705714Y-77412380D01*
X108086666Y-77412380D02*
X107515238Y-77412380D01*
X107800952Y-77412380D02*
X107800952Y-76412380D01*
X107705714Y-76555238D01*
X107610476Y-76650476D01*
X107515238Y-76698095D01*
%TO.C,R7*%
X124802380Y-70166666D02*
X124326190Y-70500000D01*
X124802380Y-70738095D02*
X123802380Y-70738095D01*
X123802380Y-70357142D01*
X123850000Y-70261904D01*
X123897619Y-70214285D01*
X123992857Y-70166666D01*
X124135714Y-70166666D01*
X124230952Y-70214285D01*
X124278571Y-70261904D01*
X124326190Y-70357142D01*
X124326190Y-70738095D01*
X123802380Y-69833333D02*
X123802380Y-69166666D01*
X124802380Y-69595238D01*
%TO.C,D2*%
X118266904Y-60992380D02*
X118266904Y-59992380D01*
X118505000Y-59992380D01*
X118647857Y-60040000D01*
X118743095Y-60135238D01*
X118790714Y-60230476D01*
X118838333Y-60420952D01*
X118838333Y-60563809D01*
X118790714Y-60754285D01*
X118743095Y-60849523D01*
X118647857Y-60944761D01*
X118505000Y-60992380D01*
X118266904Y-60992380D01*
X119219285Y-60087619D02*
X119266904Y-60040000D01*
X119362142Y-59992380D01*
X119600238Y-59992380D01*
X119695476Y-60040000D01*
X119743095Y-60087619D01*
X119790714Y-60182857D01*
X119790714Y-60278095D01*
X119743095Y-60420952D01*
X119171666Y-60992380D01*
X119790714Y-60992380D01*
%TO.C,R2*%
X107302380Y-70166666D02*
X106826190Y-70500000D01*
X107302380Y-70738095D02*
X106302380Y-70738095D01*
X106302380Y-70357142D01*
X106350000Y-70261904D01*
X106397619Y-70214285D01*
X106492857Y-70166666D01*
X106635714Y-70166666D01*
X106730952Y-70214285D01*
X106778571Y-70261904D01*
X106826190Y-70357142D01*
X106826190Y-70738095D01*
X106397619Y-69785714D02*
X106350000Y-69738095D01*
X106302380Y-69642857D01*
X106302380Y-69404761D01*
X106350000Y-69309523D01*
X106397619Y-69261904D01*
X106492857Y-69214285D01*
X106588095Y-69214285D01*
X106730952Y-69261904D01*
X107302380Y-69833333D01*
X107302380Y-69214285D01*
%TO.C,J2*%
X129946666Y-76412380D02*
X129946666Y-77126666D01*
X129899047Y-77269523D01*
X129803809Y-77364761D01*
X129660952Y-77412380D01*
X129565714Y-77412380D01*
X130375238Y-76507619D02*
X130422857Y-76460000D01*
X130518095Y-76412380D01*
X130756190Y-76412380D01*
X130851428Y-76460000D01*
X130899047Y-76507619D01*
X130946666Y-76602857D01*
X130946666Y-76698095D01*
X130899047Y-76840952D01*
X130327619Y-77412380D01*
X130946666Y-77412380D01*
%TO.C,D3*%
X127626904Y-60992380D02*
X127626904Y-59992380D01*
X127865000Y-59992380D01*
X128007857Y-60040000D01*
X128103095Y-60135238D01*
X128150714Y-60230476D01*
X128198333Y-60420952D01*
X128198333Y-60563809D01*
X128150714Y-60754285D01*
X128103095Y-60849523D01*
X128007857Y-60944761D01*
X127865000Y-60992380D01*
X127626904Y-60992380D01*
X128531666Y-59992380D02*
X129150714Y-59992380D01*
X128817380Y-60373333D01*
X128960238Y-60373333D01*
X129055476Y-60420952D01*
X129103095Y-60468571D01*
X129150714Y-60563809D01*
X129150714Y-60801904D01*
X129103095Y-60897142D01*
X129055476Y-60944761D01*
X128960238Y-60992380D01*
X128674523Y-60992380D01*
X128579285Y-60944761D01*
X128531666Y-60897142D01*
%TO.C,R8*%
X128302380Y-70166666D02*
X127826190Y-70500000D01*
X128302380Y-70738095D02*
X127302380Y-70738095D01*
X127302380Y-70357142D01*
X127350000Y-70261904D01*
X127397619Y-70214285D01*
X127492857Y-70166666D01*
X127635714Y-70166666D01*
X127730952Y-70214285D01*
X127778571Y-70261904D01*
X127826190Y-70357142D01*
X127826190Y-70738095D01*
X127730952Y-69595238D02*
X127683333Y-69690476D01*
X127635714Y-69738095D01*
X127540476Y-69785714D01*
X127492857Y-69785714D01*
X127397619Y-69738095D01*
X127350000Y-69690476D01*
X127302380Y-69595238D01*
X127302380Y-69404761D01*
X127350000Y-69309523D01*
X127397619Y-69261904D01*
X127492857Y-69214285D01*
X127540476Y-69214285D01*
X127635714Y-69261904D01*
X127683333Y-69309523D01*
X127730952Y-69404761D01*
X127730952Y-69595238D01*
X127778571Y-69690476D01*
X127826190Y-69738095D01*
X127921428Y-69785714D01*
X128111904Y-69785714D01*
X128207142Y-69738095D01*
X128254761Y-69690476D01*
X128302380Y-69595238D01*
X128302380Y-69404761D01*
X128254761Y-69309523D01*
X128207142Y-69261904D01*
X128111904Y-69214285D01*
X127921428Y-69214285D01*
X127826190Y-69261904D01*
X127778571Y-69309523D01*
X127730952Y-69404761D01*
%TO.C,D1*%
X108766904Y-60992380D02*
X108766904Y-59992380D01*
X109005000Y-59992380D01*
X109147857Y-60040000D01*
X109243095Y-60135238D01*
X109290714Y-60230476D01*
X109338333Y-60420952D01*
X109338333Y-60563809D01*
X109290714Y-60754285D01*
X109243095Y-60849523D01*
X109147857Y-60944761D01*
X109005000Y-60992380D01*
X108766904Y-60992380D01*
X110290714Y-60992380D02*
X109719285Y-60992380D01*
X110005000Y-60992380D02*
X110005000Y-59992380D01*
X109909761Y-60135238D01*
X109814523Y-60230476D01*
X109719285Y-60278095D01*
%TO.C,R3*%
X110802380Y-70166666D02*
X110326190Y-70500000D01*
X110802380Y-70738095D02*
X109802380Y-70738095D01*
X109802380Y-70357142D01*
X109850000Y-70261904D01*
X109897619Y-70214285D01*
X109992857Y-70166666D01*
X110135714Y-70166666D01*
X110230952Y-70214285D01*
X110278571Y-70261904D01*
X110326190Y-70357142D01*
X110326190Y-70738095D01*
X109802380Y-69833333D02*
X109802380Y-69214285D01*
X110183333Y-69547619D01*
X110183333Y-69404761D01*
X110230952Y-69309523D01*
X110278571Y-69261904D01*
X110373809Y-69214285D01*
X110611904Y-69214285D01*
X110707142Y-69261904D01*
X110754761Y-69309523D01*
X110802380Y-69404761D01*
X110802380Y-69690476D01*
X110754761Y-69785714D01*
X110707142Y-69833333D01*
%TO.C,R9*%
X131802380Y-70166666D02*
X131326190Y-70500000D01*
X131802380Y-70738095D02*
X130802380Y-70738095D01*
X130802380Y-70357142D01*
X130850000Y-70261904D01*
X130897619Y-70214285D01*
X130992857Y-70166666D01*
X131135714Y-70166666D01*
X131230952Y-70214285D01*
X131278571Y-70261904D01*
X131326190Y-70357142D01*
X131326190Y-70738095D01*
X131802380Y-69690476D02*
X131802380Y-69500000D01*
X131754761Y-69404761D01*
X131707142Y-69357142D01*
X131564285Y-69261904D01*
X131373809Y-69214285D01*
X130992857Y-69214285D01*
X130897619Y-69261904D01*
X130850000Y-69309523D01*
X130802380Y-69404761D01*
X130802380Y-69595238D01*
X130850000Y-69690476D01*
X130897619Y-69738095D01*
X130992857Y-69785714D01*
X131230952Y-69785714D01*
X131326190Y-69738095D01*
X131373809Y-69690476D01*
X131421428Y-69595238D01*
X131421428Y-69404761D01*
X131373809Y-69309523D01*
X131326190Y-69261904D01*
X131230952Y-69214285D01*
%TO.C,R5*%
X117802380Y-70166666D02*
X117326190Y-70500000D01*
X117802380Y-70738095D02*
X116802380Y-70738095D01*
X116802380Y-70357142D01*
X116850000Y-70261904D01*
X116897619Y-70214285D01*
X116992857Y-70166666D01*
X117135714Y-70166666D01*
X117230952Y-70214285D01*
X117278571Y-70261904D01*
X117326190Y-70357142D01*
X117326190Y-70738095D01*
X116802380Y-69261904D02*
X116802380Y-69738095D01*
X117278571Y-69785714D01*
X117230952Y-69738095D01*
X117183333Y-69642857D01*
X117183333Y-69404761D01*
X117230952Y-69309523D01*
X117278571Y-69261904D01*
X117373809Y-69214285D01*
X117611904Y-69214285D01*
X117707142Y-69261904D01*
X117754761Y-69309523D01*
X117802380Y-69404761D01*
X117802380Y-69642857D01*
X117754761Y-69738095D01*
X117707142Y-69785714D01*
%TO.C,R6*%
X121302380Y-70166666D02*
X120826190Y-70500000D01*
X121302380Y-70738095D02*
X120302380Y-70738095D01*
X120302380Y-70357142D01*
X120350000Y-70261904D01*
X120397619Y-70214285D01*
X120492857Y-70166666D01*
X120635714Y-70166666D01*
X120730952Y-70214285D01*
X120778571Y-70261904D01*
X120826190Y-70357142D01*
X120826190Y-70738095D01*
X120302380Y-69309523D02*
X120302380Y-69500000D01*
X120350000Y-69595238D01*
X120397619Y-69642857D01*
X120540476Y-69738095D01*
X120730952Y-69785714D01*
X121111904Y-69785714D01*
X121207142Y-69738095D01*
X121254761Y-69690476D01*
X121302380Y-69595238D01*
X121302380Y-69404761D01*
X121254761Y-69309523D01*
X121207142Y-69261904D01*
X121111904Y-69214285D01*
X120873809Y-69214285D01*
X120778571Y-69261904D01*
X120730952Y-69309523D01*
X120683333Y-69404761D01*
X120683333Y-69595238D01*
X120730952Y-69690476D01*
X120778571Y-69738095D01*
X120873809Y-69785714D01*
%TO.C,R4*%
X114302380Y-70254166D02*
X113826190Y-70587500D01*
X114302380Y-70825595D02*
X113302380Y-70825595D01*
X113302380Y-70444642D01*
X113350000Y-70349404D01*
X113397619Y-70301785D01*
X113492857Y-70254166D01*
X113635714Y-70254166D01*
X113730952Y-70301785D01*
X113778571Y-70349404D01*
X113826190Y-70444642D01*
X113826190Y-70825595D01*
X113635714Y-69397023D02*
X114302380Y-69397023D01*
X113254761Y-69635119D02*
X113969047Y-69873214D01*
X113969047Y-69254166D01*
D11*
%TO.C,R1*%
X104265000Y-70227064D02*
X104265000Y-69772936D01*
X105735000Y-70227064D02*
X105735000Y-69772936D01*
%TO.C,J1*%
X108750000Y-81000000D02*
X108750000Y-119160000D01*
X108750000Y-78400000D02*
X108750000Y-79730000D01*
X106090000Y-119160000D02*
X108750000Y-119160000D01*
X106090000Y-81000000D02*
X106090000Y-119160000D01*
X107420000Y-78400000D02*
X108750000Y-78400000D01*
X106090000Y-81000000D02*
X108750000Y-81000000D01*
%TO.C,R7*%
X126735000Y-70227064D02*
X126735000Y-69772936D01*
X125265000Y-70227064D02*
X125265000Y-69772936D01*
%TO.C,D2*%
X116445000Y-65580000D02*
X116445000Y-66045000D01*
X116445000Y-62955000D02*
X116445000Y-63420000D01*
X121259479Y-63419571D02*
G75*
G03*
X116750316Y-63420000I-2254479J-1080429D01*
G01*
X121792815Y-63419173D02*
G75*
G03*
X116445000Y-62955170I-2787815J-1080827D01*
G01*
X116750316Y-65580000D02*
G75*
G03*
X121259479Y-65580429I2254684J1080000D01*
G01*
X116445000Y-66044830D02*
G75*
G03*
X121792815Y-65580827I2560000J1544830D01*
G01*
%TO.C,R2*%
X109235000Y-70227064D02*
X109235000Y-69772936D01*
X107765000Y-70227064D02*
X107765000Y-69772936D01*
%TO.C,J2*%
X128950000Y-81000000D02*
X128950000Y-119160000D01*
X130280000Y-78400000D02*
X131610000Y-78400000D01*
X128950000Y-119160000D02*
X131610000Y-119160000D01*
X128950000Y-81000000D02*
X131610000Y-81000000D01*
X131610000Y-78400000D02*
X131610000Y-79730000D01*
X131610000Y-81000000D02*
X131610000Y-119160000D01*
%TO.C,D3*%
X125805000Y-65580000D02*
X125805000Y-66045000D01*
X125805000Y-62955000D02*
X125805000Y-63420000D01*
X130619479Y-63419571D02*
G75*
G03*
X126110316Y-63420000I-2254479J-1080429D01*
G01*
X131152815Y-63419173D02*
G75*
G03*
X125805000Y-62955170I-2787815J-1080827D01*
G01*
X125805000Y-66044830D02*
G75*
G03*
X131152815Y-65580827I2560000J1544830D01*
G01*
X126110316Y-65580000D02*
G75*
G03*
X130619479Y-65580429I2254684J1080000D01*
G01*
%TO.C,R8*%
X128765000Y-70227064D02*
X128765000Y-69772936D01*
X130235000Y-70227064D02*
X130235000Y-69772936D01*
%TO.C,D1*%
X106945000Y-65580000D02*
X106945000Y-66045000D01*
X106945000Y-62955000D02*
X106945000Y-63420000D01*
X112292815Y-63419173D02*
G75*
G03*
X106945000Y-62955170I-2787815J-1080827D01*
G01*
X107250316Y-65580000D02*
G75*
G03*
X111759479Y-65580429I2254684J1080000D01*
G01*
X111759479Y-63419571D02*
G75*
G03*
X107250316Y-63420000I-2254479J-1080429D01*
G01*
X106945000Y-66044830D02*
G75*
G03*
X112292815Y-65580827I2560000J1544830D01*
G01*
%TO.C,R3*%
X111265000Y-70227064D02*
X111265000Y-69772936D01*
X112735000Y-70227064D02*
X112735000Y-69772936D01*
%TO.C,R9*%
X133735000Y-70227064D02*
X133735000Y-69772936D01*
X132265000Y-70227064D02*
X132265000Y-69772936D01*
%TO.C,R5*%
X119735000Y-70227064D02*
X119735000Y-69772936D01*
X118265000Y-70227064D02*
X118265000Y-69772936D01*
%TO.C,R6*%
X121765000Y-70227064D02*
X121765000Y-69772936D01*
X123235000Y-70227064D02*
X123235000Y-69772936D01*
%TO.C,R4*%
X116235000Y-70314564D02*
X116235000Y-69860436D01*
X114765000Y-70314564D02*
X114765000Y-69860436D01*
%TD*%
M02*
