M48
; DRILL file {KiCad (6.0.5)} date Sat 18 Jun 2022 07:52:56 PM
; FORMAT={-:-/ absolute / inch / decimal}
; #@! TF.CreationDate,2022-06-18T19:52:56-07:00
; #@! TF.GenerationSoftware,Kicad,Pcbnew,(6.0.5)
; #@! TF.FileFunction,Plated,1,2,PTH
FMAT,2
INCH
; #@! TA.AperFunction,Plated,PTH,ComponentDrill
T1C0.0354
; #@! TA.AperFunction,Plated,PTH,ComponentDrill
T2C0.0394
; #@! TA.AperFunction,Plated,PTH,ComponentDrill
T3C0.1260
%
G90
G05
T1
X4.9449Y-2.8937
X4.9949Y-2.8937
X5.0449Y-2.8937
X5.0949Y-2.8937
X5.3189Y-2.8937
X5.3689Y-2.8937
X5.4189Y-2.8937
X5.4689Y-2.8937
X5.6874Y-2.8937
X5.7374Y-2.8937
X5.7874Y-2.8937
X5.8374Y-2.8937
T2
X4.9378Y-3.5181
X4.9378Y-3.6181
X4.9378Y-3.7181
X4.9378Y-3.8181
X4.9378Y-3.9181
X4.9378Y-4.0181
X4.9378Y-4.1181
X4.9378Y-4.2181
X4.9378Y-4.3181
X4.9378Y-4.4181
X4.9378Y-4.5181
X4.9378Y-4.6181
X4.9378Y-4.7181
X4.9378Y-4.8181
X4.9378Y-4.9181
X4.9378Y-5.0181
X5.8378Y-3.5181
X5.8378Y-3.6181
X5.8378Y-3.7181
X5.8378Y-3.8181
X5.8378Y-3.9181
X5.8378Y-4.0181
X5.8378Y-4.1181
X5.8378Y-4.2181
X5.8378Y-4.3181
X5.8378Y-4.4181
X5.8378Y-4.5181
X5.8378Y-4.6181
X5.8378Y-4.7181
X5.8378Y-4.8181
X5.8378Y-4.9181
X5.8378Y-5.0181
T3
X4.685Y-2.8346
X4.685Y-4.9213
X6.1024Y-2.8346
X6.1024Y-4.9213
T0
M30
